<?xml version="1.0" standalone="no"?><!DOCTYPE svg PUBLIC "-//W3C//DTD SVG 1.1//EN" "http://www.w3.org/Graphics/SVG/1.1/DTD/svg11.dtd"><svg t="1634973689978" class="icon" viewBox="0 0 1024 1024" version="1.1" xmlns="http://www.w3.org/2000/svg" p-id="12817" xmlns:xlink="http://www.w3.org/1999/xlink" width="20" height="20"><defs><style type="text/css"></style></defs><path d="M878.4 292.8 880 320c0 25.6 0 24 0 48 0 254.4-201.6 432-480 432-36.8 0-96 0-96 0 76.8 75.2 164.8 120 288 120 25.6 0 51.2-1.6 76.8-6.4L848 1024 848 843.2c97.6-67.2 160-169.6 160-286.4C1008 452.8 958.4 358.4 878.4 292.8z" p-id="12818"></path><path d="M324.8 728c25.6 4.8 81.6 8 107.2 8 230.4 0 384-171.2 384-371.2C816 163.2 624 0 432 0 201.6 0 16 163.2 16 363.2 16 480 60.8 579.2 144 651.2L144 832 324.8 728zM608 320c27.2 0 48 20.8 48 48 0 27.2-20.8 48-48 48-27.2 0-48-20.8-48-48C560 340.8 580.8 320 608 320zM416 320c27.2 0 48 20.8 48 48 0 27.2-20.8 48-48 48-27.2 0-48-20.8-48-48C368 340.8 388.8 320 416 320zM224 320c27.2 0 48 20.8 48 48 0 27.2-20.8 48-48 48-27.2 0-48-20.8-48-48C176 340.8 196.8 320 224 320z" p-id="12819"></path></svg>