<?xml version="1.0" standalone="no"?><!DOCTYPE svg PUBLIC "-//W3C//DTD SVG 1.1//EN" "http://www.w3.org/Graphics/SVG/1.1/DTD/svg11.dtd"><svg t="1635062055665" class="icon" viewBox="0 0 2047 1024" version="1.1" xmlns="http://www.w3.org/2000/svg" p-id="23130" xmlns:xlink="http://www.w3.org/1999/xlink" width="24" height="20"><defs><style type="text/css"></style></defs><path d="M532.360032 1017.310429l67.88896-69.424909a23.03924 23.03924 0 0 0 0-32.050143l-334.836951-329.717119h1515.46999L1447.88822 914.401825a23.03924 23.03924 0 0 0 0 32.050142l67.888959 69.424909a21.81048 21.81048 0 0 0 31.333366 0l425.253167-419.109369 3.686278-3.583882 65.533838-64.612268a26.418328 26.418328 0 0 0 0-34.610058l-67.88896-66.96739L1547.008149 6.65578a21.81048 21.81048 0 0 0-31.23097 0l-67.991356 69.629703a23.03924 23.03924 0 0 0 0 31.947745l334.632157 329.71712h-1515.469989L600.146595 109.564384a23.03924 23.03924 0 0 0 0-32.050142L532.257635 8.19173a21.81048 21.81048 0 0 0-31.333366 0L75.773499 427.198702a110.281161 110.281161 0 0 0-3.686278 3.583882l-65.533837 64.612268a26.418328 26.418328 0 0 0 0 34.610058l67.888959 66.96739 426.584323 420.338129a21.81048 21.81048 0 0 0 31.435763 0z" fill="#EFEDEC" p-id="23131"></path></svg>