<?xml version="1.0" standalone="no"?><!DOCTYPE svg PUBLIC "-//W3C//DTD SVG 1.1//EN" "http://www.w3.org/Graphics/SVG/1.1/DTD/svg11.dtd"><svg t="1662472806331" class="icon" viewBox="0 0 1024 1024" version="1.1" xmlns="http://www.w3.org/2000/svg" p-id="48328" width="40" height="40" xmlns:xlink="http://www.w3.org/1999/xlink"><path d="M855.466667 179.2C765.866667 89.6 640 40.533333 512 42.666667c-128-2.133333-253.866667 46.933333-343.466667 136.533333-83.2 85.333333-128 196.266667-125.866666 311.466667 0 78.933333 21.333333 155.733333 57.6 221.866666l-34.133334 100.266667c-8.533333 29.866667-2.133333 61.866667 17.066667 83.2 17.066667 19.2 40.533333 29.866667 64 29.866667 4.266667 0 10.666667 0 14.933333-2.133334l147.2-27.733333c61.866667 27.733333 130.133333 40.533333 200.533334 40.533333h10.666666c125.866667 0 245.333333-49.066667 332.8-136.533333 85.333333-85.333333 130.133333-196.266667 125.866667-311.466667 4.266667-115.2-40.533333-224-123.733333-309.333333zM320 554.666667c-36.266667 0-64-27.733333-64-64s27.733333-64 64-64 64 27.733333 64 64-27.733333 64-64 64z m194.133333 0c-36.266667 0-64-27.733333-64-64s27.733333-64 64-64 64 27.733333 64 64-29.866667 64-64 64z m189.866667 0c-36.266667 0-64-27.733333-64-64s27.733333-64 64-64 64 27.733333 64 64-27.733333 64-64 64z" fill="#80B7F9" p-id="48329"></path></svg>