<?xml version="1.0" standalone="no"?><!DOCTYPE svg PUBLIC "-//W3C//DTD SVG 1.1//EN" "http://www.w3.org/Graphics/SVG/1.1/DTD/svg11.dtd"><svg t="1662468432795" class="icon" viewBox="0 0 1024 1024" version="1.1" xmlns="http://www.w3.org/2000/svg" p-id="33172" xmlns:xlink="http://www.w3.org/1999/xlink" width="50" height="50"><path d="M956.22 781.37l-40.59-124.03V277.28c0-55.56-45.2-100.76-100.77-100.76H207.81c-55.56 0-100.77 45.2-100.77 100.76v380.06L66.45 781.37c-5.55 16.94-2.54 35.19 8.25 50.07 14.63 20.18 41.51 32.23 71.89 32.23h729.49c30.39 0 57.26-12.05 71.89-32.23 10.79-14.88 13.8-33.13 8.25-50.07zM174 277.28c0-18.64 15.16-33.8 33.8-33.8h607.05c18.64 0 33.8 15.16 33.8 33.8v355.39H174V277.28z m702.08 519.43H146.59c-6.02 0-10.76-1.2-13.89-2.49l30.96-94.6h695.35l30.96 94.6c-3.13 1.29-7.87 2.49-13.89 2.49z" fill="#2c2c2c" p-id="33173"></path><path d="M484.6 369.44h-63.32c-7.93 0-14.36 6.43-14.36 14.36v38.23c0 7.93 6.43 14.36 14.36 14.36h63.32c7.93 0 14.36-6.43 14.36-14.36V383.8c0-7.93-6.43-14.36-14.36-14.36zM601.39 369.86h-63.32c-7.93 0-14.36 6.43-14.36 14.36v38.23c0 7.93 6.43 14.36 14.36 14.36h63.32c7.93 0 14.36-6.43 14.36-14.36v-38.23c0-7.93-6.43-14.36-14.36-14.36zM484.6 453.14h-63.32c-7.93 0-14.36 6.43-14.36 14.36v38.23c0 7.93 6.43 14.36 14.36 14.36h63.32c7.93 0 14.36-6.43 14.36-14.36V467.5c0-7.93-6.43-14.36-14.36-14.36zM601.39 453.56h-63.32c-7.93 0-14.36 6.43-14.36 14.36v38.23c0 7.93 6.43 14.36 14.36 14.36h63.32c7.93 0 14.36-6.43 14.36-14.36v-38.23c0-7.93-6.43-14.36-14.36-14.36zM815.81 714.69H207.28c-18.49 0-33.48 14.99-33.48 33.48s14.99 33.48 33.48 33.48h608.53c18.49 0 33.48-14.99 33.48-33.48s-14.99-33.48-33.48-33.48z" fill="#2c2c2c" p-id="33174"></path></svg>