<?xml version="1.0" standalone="no"?><!DOCTYPE svg PUBLIC "-//W3C//DTD SVG 1.1//EN" "http://www.w3.org/Graphics/SVG/1.1/DTD/svg11.dtd"><svg t="1634697817301" class="icon" viewBox="0 0 1603 1024" version="1.1" xmlns="http://www.w3.org/2000/svg" p-id="2390" xmlns:xlink="http://www.w3.org/1999/xlink" width="18" height="12"><defs><style type="text/css"></style></defs><path d="M1010.042131 836.203222L837.472119 1008.773234c-18.610492 18.610492-50.755886 18.610492-71.05824 0L15.226766 255.894259c-18.610492-18.610492-18.610492-50.755886 0-71.058241L187.796778 13.957869c18.610492-18.610492 50.755886-18.610492 71.058241 0l751.187112 751.187112c18.610492 20.302354 18.610492 52.447749 0 71.058241z" p-id="2391" fill="#EEEEEE"></path><path d="M1416.089219 13.957869L1588.659232 186.527881c18.610492 18.610492 18.610492 50.755886 0 71.05824L835.780256 1008.773234c-18.610492 18.610492-50.755886 18.610492-71.05824 0L593.843866 836.203222c-18.610492-18.610492-18.610492-50.755886 0-71.058241L1346.722842 13.957869c18.610492-18.610492 50.755886-18.610492 69.366377 0z" p-id="2392" fill="#EEEEEE"></path></svg>