<?xml version="1.0" standalone="no"?><!DOCTYPE svg PUBLIC "-//W3C//DTD SVG 1.1//EN" "http://www.w3.org/Graphics/SVG/1.1/DTD/svg11.dtd"><svg t="1634887934153" class="icon" viewBox="0 0 1024 1024" version="1.1" xmlns="http://www.w3.org/2000/svg" p-id="9666" xmlns:xlink="http://www.w3.org/1999/xlink" width="20" height="20"><defs><style type="text/css"></style></defs><path d="M64 512c0 298.7 149.3 448 448 448s448-149.3 448-448S810.7 64 512 64 64 213.3 64 512z m803.2 0c0 236.8-118.4 355.3-355.3 355.3S156.7 748.9 156.7 512 275.1 156.7 512 156.7 867.2 275.2 867.2 512z" fill="#040000" p-id="9667"></path><path d="M503 331.6c-0.1 9.2-4.2 92-5.2 176.3-0.9 84.3 3.3 155.8 1.3 161.8-7.5 22.4 21.1 36.7 32.8 27.2 9.4-7.6 181.4-162 197.4-175.1 23.2-14.9 6.5-44.8 6.5-44.8-11.3-9.8-188.3-157.2-201.7-168.2-9.9-8-30.8-8.6-31.1 22.8z" fill="#040000" p-id="9668"></path><path d="M527.7 434.5H317.4c-32.7 0-59.1 26.4-59.1 59v14.8c0 32.6 26.4 59 59.1 59h210.3c32.7 0 59-26.4 59-59v-14.8c0.1-32.6-26.3-59-59-59z" fill="#040000" p-id="9669"></path></svg>