<?xml version="1.0" standalone="no"?><!DOCTYPE svg PUBLIC "-//W3C//DTD SVG 1.1//EN" "http://www.w3.org/Graphics/SVG/1.1/DTD/svg11.dtd"><svg t="1635142119702" class="icon" viewBox="0 0 1024 1024" version="1.1" xmlns="http://www.w3.org/2000/svg" p-id="16146" xmlns:xlink="http://www.w3.org/1999/xlink" width="20" height="20"><defs><style type="text/css"></style></defs><path d="M819.788835 800.976554l0 158.697395-156.846521-96.562243c-21.750241 3.551896-44.07458 5.628184-67.000649 5.628184-107.742184 0-204.254146-41.231053-270.859782-106.344027 10.971315 0.62831 21.874066 1.421372 33.022421 1.421372 15.629596 0 31.041219-0.765433 46.288082-1.994424 52.58679 36.20355 119.082928 57.953923 191.548256 57.953923 24.974811 0 49.130944-2.841721 72.41109-7.705496l54.486124 36.341696c-0.055261 0.026606-0.108475 0.054235-0.163736 0.081864L763.827042 875.735212l0-43.089377 0-56.041364c84.16015-47.434336 139.903969-129.35102 139.903969-222.63459 0-58.992579-22.515705-113.311719-60.1698-157.413146 2.486736-17.214057 4.208007-34.632775 4.208007-52.435233 0-8.142447-0.873939-16.080234-1.421431-24.099884 69.678751 57.981553 113.343992 139.665946 113.343992 230.449579C959.692804 652.307559 904.823947 742.722802 819.788835 800.976554zM428.057311 700.862415c-22.925045 0-45.263711-2.076288-67.000649-5.629207l-156.845497 96.562243L204.211165 633.126708C119.176053 574.845327 64.307196 484.430084 64.307196 382.593721c0-175.774329 162.857668-318.268694 363.750115-318.268694 200.894494 0 363.750115 142.494365 363.750115 318.268694C791.807427 558.36805 628.951806 700.862415 428.057311 700.862415zM428.057311 120.284527c-169.988357 0-307.789346 119.023814-307.789346 265.806855 0 93.270267 55.743819 175.173648 139.903969 222.63459l0 56.041364 0 43.089377 41.150875-27.241434c-0.068564-0.026606-0.122802-0.055259-0.177039-0.081864l54.513755-36.340673c23.266843 4.863774 47.421952 7.704472 72.397787 7.704472 169.988357 0 307.789346-118.995161 307.789346-265.806855C735.846658 239.307318 598.045669 120.284527 428.057311 120.284527zM609.932881 428.061262c-23.171672 0-41.9716-18.784832-41.9716-41.96988 0-23.170722 18.799928-41.96988 41.9716-41.96988 23.172695 0 41.9716 18.799158 41.9716 41.96988C651.903457 409.275407 633.104552 428.061262 609.932881 428.061262zM442.047504 428.061262c-23.184975 0-41.9716-18.784832-41.9716-41.96988 0-23.170722 18.785602-41.96988 41.9716-41.96988s41.9716 18.799158 41.9716 41.96988C484.019104 409.275407 465.233502 428.061262 442.047504 428.061262zM274.16315 428.061262c-23.184975 0-41.970577-18.784832-41.970577-41.96988 0-23.170722 18.785602-41.96988 41.970577-41.96988s41.9716 18.799158 41.9716 41.96988C316.133727 409.275407 297.348125 428.061262 274.16315 428.061262z" p-id="16147"></path></svg>