<?xml version="1.0" standalone="no"?><!DOCTYPE svg PUBLIC "-//W3C//DTD SVG 1.1//EN" "http://www.w3.org/Graphics/SVG/1.1/DTD/svg11.dtd"><svg t="1635141668883" class="icon" viewBox="0 0 1024 1024" version="1.1" xmlns="http://www.w3.org/2000/svg" p-id="7835" width="20" height="20" xmlns:xlink="http://www.w3.org/1999/xlink"><defs><style type="text/css"></style></defs><path d="M512 919.604198C287.856072 919.604198 104.395802 736.143928 104.395802 512c0-24.410195 16.273463-40.683658 40.683658-40.683658S185.763118 487.589805 185.763118 512c0 179.315142 146.768216 326.083358 326.083359 326.083358 179.315142 0 326.083358-146.768216 326.083358-326.083358 0-179.315142-146.768216-326.083358-326.083358-326.083358-110.076162 0-212.015592 52.965517-268.972714 146.768216C226.6003 348.958321 202.190105 353.103448 185.916642 340.821589c-20.418591-12.281859-24.410195-36.692054-12.281859-57.110644C247.018891 173.634783 377.513643 104.395802 512 104.395802 736.143928 104.395802 919.604198 287.856072 919.604198 512S736.143928 919.604198 512 919.604198z m0-366.92054c-24.410195 0-40.683658-16.273463-40.683658-40.683658V308.274663c0-24.410195 16.273463-40.683658 40.683658-40.683659s40.683658 16.273463 40.683658 40.683659v203.725337c0 24.410195-16.273463 40.683658-40.683658 40.683658z m122.204498 122.358021c-12.281859 0-20.418591-4.145127-28.555323-12.281859l-122.204497-122.204498c-16.273463-16.273463-16.273463-40.683658 0-57.110644 16.273463-16.273463 40.683658-16.273463 57.110644 0l122.204498 122.204497c16.273463 16.273463 16.273463 40.683658 0 57.110645-8.136732 8.136732-16.273463 12.281859-28.555322 12.281859zM348.958321 348.958321H185.916642c-24.410195 0-40.683658-16.273463-40.683658-40.683658V145.07946c0-24.410195 16.273463-40.683658 40.683658-40.683658S226.6003 120.669265 226.6003 145.07946v122.358021h122.358021c24.410195 0 40.683658 16.273463 40.683658 40.683658 0.153523 24.563718-16.273463 40.837181-40.683658 40.837182z m0 0" p-id="7836"></path></svg>