<?xml version="1.0" standalone="no"?><!DOCTYPE svg PUBLIC "-//W3C//DTD SVG 1.1//EN" "http://www.w3.org/Graphics/SVG/1.1/DTD/svg11.dtd"><svg t="1635141773797" class="icon" viewBox="0 0 1024 1024" version="1.1" xmlns="http://www.w3.org/2000/svg" p-id="13725" xmlns:xlink="http://www.w3.org/1999/xlink" width="20" height="20"><defs><style type="text/css"></style></defs><path d="M512 519.64m-77.62 0a77.62 77.62 0 1 0 155.24 0 77.62 77.62 0 1 0-155.24 0Z" p-id="13726"></path><path d="M512 249.1c-183.88 0-342.67 107.41-417.07 262.9C169.33 667.49 328.12 774.9 512 774.9S854.67 667.49 929.08 512C854.67 356.51 695.88 249.1 512 249.1z m0 411.07c-77.61 0-140.53-62.92-140.53-140.53S434.39 379.11 512 379.11s140.53 62.92 140.53 140.53S589.61 660.17 512 660.17z" p-id="13727"></path></svg>