<?xml version="1.0" standalone="no"?><!DOCTYPE svg PUBLIC "-//W3C//DTD SVG 1.1//EN" "http://www.w3.org/Graphics/SVG/1.1/DTD/svg11.dtd"><svg t="1635141754913" class="icon" viewBox="0 0 1025 1024" version="1.1" xmlns="http://www.w3.org/2000/svg" p-id="12825" xmlns:xlink="http://www.w3.org/1999/xlink" width="20.01953125" height="20"><defs><style type="text/css"></style></defs><path d="M874.291209 149.9136C777.540276 53.256533 648.960009 0 512.119476 0 375.321609 0 246.724276 53.256533 150.016009 149.930667 53.273609 246.6304 9.0e-06 375.227733 9.0e-06 512c-0.0256 136.797867 53.205333 265.352533 149.9392 362.120533C246.630409 970.734933 375.244809 1024 512.025609 1024c136.840533 0 265.4976-53.2992 362.2656-149.981867C1073.928543 674.414933 1073.962676 349.602133 874.291209 149.9136L874.291209 149.9136 874.291209 149.9136zM827.093343 826.8288c-84.155733 84.1216-196.0448 130.491733-315.067733 130.491733-118.9376 0-230.801067-46.353067-314.9056-130.389333C113.024009 742.8352 66.713609 630.9888 66.739209 512c0-118.971733 46.327467-230.826667 130.449067-314.897067C281.309876 113.024 393.139209 66.730667 512.119476 66.730667c118.9888 0 230.8352 46.293333 314.973867 130.3808C1000.729609 370.7392 1000.729609 653.2608 827.093343 826.8288L827.093343 826.8288 827.093343 826.8288zM733.422943 637.474133 556.390409 535.125333 556.390409 256c0-23.552-19.114667-42.666667-42.683733-42.666667-23.552 0-42.666667 19.106133-42.666667 42.666667l0 298.6752c0 15.829333 19.677867 29.098667 32.477867 36.437333 3.541333 5.3248 13.269333 10.154667 19.208533 13.568l176.0512 106.6752c20.394667 11.767467 42.504533 4.770133 54.280533-15.616C764.834143 675.328 753.868809 649.258667 733.422943 637.474133L733.422943 637.474133 733.422943 637.474133zM733.422943 637.474133" p-id="12826"></path></svg>