<?xml version="1.0" standalone="no"?><!DOCTYPE svg PUBLIC "-//W3C//DTD SVG 1.1//EN" "http://www.w3.org/Graphics/SVG/1.1/DTD/svg11.dtd"><svg t="1634623165282" class="icon" viewBox="0 0 1024 1024" version="1.1" xmlns="http://www.w3.org/2000/svg" p-id="2186" xmlns:xlink="http://www.w3.org/1999/xlink" width="28" height="28"><defs><style type="text/css"></style></defs><path d="M763.469681 150.853926c-10.112964-2.528241-20.587105-3.97295-31.241835-3.97295-57.06601 0-106.908475 38.826558-121.174977 94.26727-17.155921 66.998385 23.295935 135.44148 90.29432 152.958578 10.293552 2.528241 20.767694 3.97295 31.422423 3.97295 57.427188 0 107.269652-38.46538 120.994389-94.26727C870.919922 236.63353 830.468067 168.190435 763.469681 150.853926zM800.129175 290.087767c-8.126489 30.700069-35.756551 52.370706-67.540151 52.370706-6.140014 0-11.91885-0.902943-17.697687-2.347652-37.381848-9.571198-59.594251-47.675401-50.023053-85.057249 8.126489-30.700069 35.756551-52.370706 67.540151-52.370706 6.140014 0 11.738262 0.902943 17.697687 2.347652C787.48797 214.601716 809.700373 252.705919 800.129175 290.087767z" p-id="2187" fill="#2c2c2c"></path><path d="M968.257199 19.024219c-16.072389-14.62768-40.993621-20.767694-73.860754-18.60063-114.312609 7.584723-321.086602 114.493198-456.889259 263.840003-17.336509-2.347652-34.853608-3.611773-52.370706-3.611773-153.500344 0-288.038881 91.919618-304.11127 153.680933-6.320602 24.198878 0 41.354799 6.501191 51.467762 19.503573 31.241835 64.650733 40.451855 112.506723 50.023053 22.031814 4.153539 44.244217 8.848843 63.928379 15.169446-3.611773 43.341274 15.350034 82.34842 58.691308 122.619687-1.805886 4.695305-3.431184 9.210021-4.695305 13.363559-6.68178 19.684162-12.280028 42.257742 3.070007 56.885422 4.514716 4.334127 12.099439 9.029432 24.018289 9.029432 14.085914 0 34.311842-8.307077 55.260124-19.503573 43.702451 29.797126 84.154306 49.481287 127.49558 49.481287 6.501191 0 13.002382-0.361177 19.684162-1.26412 6.501191 13.724737 12.460616 28.352416 18.420041 42.618919 21.30946 51.467762 43.521862 105.283177 92.100206 105.283177 9.932375 0 20.406516-3.070007 30.880657-8.487666 58.330131-27.810651 121.716743-180.046874 91.919618-329.574268 5.778836-7.404134 11.557673-14.988857 17.517098-22.754169 91.739029-121.174977 155.847996-236.571118 185.645122-333.366629C1011.95965 122.862687 1006.541991 53.155472 968.257199 19.024219zM134.840625 436.003388c-1.26412-1.805886-0.541766-5.237071 0.180589-8.126489 7.042957-27.088296 109.797893-112.145545 250.115266-112.145545 2.528241 0 5.417659 0 7.9459 0-53.815415 63.74779-94.086681 115.757318-114.493198 161.446244-22.392991-7.042957-45.869515-11.738262-67.359563-16.252978C181.97426 455.326373 141.883582 447.019295 134.840625 436.003388zM379.538233 661.739188c18.60063-43.88304 55.440712-113.770843 97.698454-161.446244 50.925996-57.427188 90.113731-77.833704 108.172595-77.833704 1.26412 0 3.792361 0 4.875893 1.083532 5.417659 5.056482 3.250596 47.133635-62.664258 121.355566C484.640821 593.476682 420.531854 638.804431 379.538233 661.739188zM715.79428 760.159997c-18.058864 59.052485-42.618919 86.682547-51.648351 91.197263-3.431184 1.625298-5.598248 1.805886-6.501191 1.805886-2.347652 0-7.584723-3.792361-13.905325-13.905325-9.029432-14.266503-17.517098-34.853608-26.727119-56.704833-5.237071-12.460616-10.474141-25.28241-16.252978-37.743026 39.368324-19.684162 81.084299-55.621301 130.746175-113.229077C734.575499 687.021598 723.920769 733.794056 715.79428 760.159997zM930.333584 199.071093c-19.503573 63.206024-65.914854 169.211556-176.796279 316.03012-84.515484 112.145545-144.470912 169.572733-194.313377 186.548065-32.505955 11.015907-62.483669 5.778836-106.366709-20.406516 45.327749-30.700069 87.58549-66.817797 116.479673-99.323752 34.853608-39.187735 59.413663-77.291938 70.790747-109.978482 18.420041-52.009528-0.180589-78.736647-12.641205-89.752554-11.196496-9.751787-25.643587-14.988857-41.896564-14.988857-41.535387 0-94.628447 33.950664-149.888571 96.253745-41.354799 46.772458-74.221931 106.727886-88.849611 136.163835-25.643587-27.630062-30.700069-49.661876-26.54653-72.235456l1.625298-6.140014c13.002382-48.758933 67.72074-115.215552 143.38738-203.523397 1.083532-1.444709 2.167064-2.70883 3.250596-3.792361l22.57358-25.824176C626.222315 146.700387 812.950968 61.823726 898.008218 56.04489c20.767694-1.26412 30.700069 2.167064 33.22831 4.514716C946.405973 74.103754 955.254817 118.528559 930.333584 199.071093z" p-id="2188" fill="#2c2c2c"></path><path d="M459.177823 795.735959c-12.821793-8.307077-29.977714-4.695305-38.46538 8.487666l-80.723122 125.689693-25.28241-85.960193c-2.528241-8.668255-9.029432-15.169446-17.336509-18.239453-8.487666-3.070007-17.517098-1.805886-25.101821 3.431184l-34.853608 24.198878 22.754169-47.494812c4.153539-8.668255 3.611773-18.60063-1.444709-26.727119-5.056482-8.126489-13.724737-13.002382-23.295935-13.182971L113.892343 763.591181l89.752554-95.892568c10.293552-11.377084 9.571198-29.074771-1.444709-39.548912-11.377084-10.293552-29.074771-9.571198-39.548912 1.444709L30.099214 771.356493c-7.765312 8.126489-9.571198 19.684162-5.417659 29.797126 4.334127 10.112964 14.266503 16.794744 25.28241 16.975332l141.039728 2.347652-49.300699 103.477291c-5.417659 11.377084-2.528241 25.28241 7.223546 33.22831 9.390609 8.126489 23.476523 8.848843 33.770076 1.625298l89.210788-62.303081 31.422423 107.630829c3.070007 10.293552 11.738262 18.058864 22.754169 19.684162 1.444709 0.180589 2.528241 0.180589 3.97295 0.180589 9.390609 0 18.420041-4.695305 24.018289-13.002382l113.770843-176.976867C475.791978 821.379546 472.360794 804.223625 459.177823 795.735959z" p-id="2189" fill="#2c2c2c"></path></svg>