<?xml version="1.0" standalone="no"?><!DOCTYPE svg PUBLIC "-//W3C//DTD SVG 1.1//EN" "http://www.w3.org/Graphics/SVG/1.1/DTD/svg11.dtd"><svg t="1634568417666" class="icon" viewBox="0 0 1024 1024" version="1.1" xmlns="http://www.w3.org/2000/svg" p-id="20327" xmlns:xlink="http://www.w3.org/1999/xlink" width="32" height="32"><defs><style type="text/css"></style></defs><path d="M855.7056 403.456l-130.4576-120.064c-90.7776-83.5584-230.0416-84.7872-322.304-2.9184L264.5504 403.3024a124.7232 124.7232 0 0 0-41.9328 93.2864v293.1712c0 56.7808 46.0288 102.8096 102.8096 102.8096h467.6608c56.7808 0 102.8096-46.0288 102.8096-102.8096V495.2576c0.1024-34.9184-14.5408-68.1984-40.192-91.8016z" fill="#56E5BE" p-id="20328"></path><path d="M860.1088 457.216l-116.1216-106.9056c-80.7936-74.3424-204.7488-75.4688-286.8736-2.6112L333.9776 457.0624a111.02208 111.02208 0 0 0-37.3248 83.0464v260.9152c0 50.5344 40.96 91.5456 91.5456 91.5456h416.256c50.5344 0 91.5456-40.96 91.5456-91.5456v-262.144c0-31.0272-13.0048-60.6208-35.8912-81.664z" fill="#50DDB8" p-id="20329"></path><path d="M864.256 512.7168l-102.7072-94.5152c-71.424-65.7408-181.0432-66.7648-253.6448-2.304l-108.9024 96.6656c-20.992 18.6368-33.024 45.3632-33.024 73.4208v230.7072c0 44.6976 36.2496 80.9472 80.9472 80.9472h368.0768c44.6976 0 80.9472-36.2496 80.9472-80.9472v-231.7824c0-7.9872-0.9728-15.872-2.8672-23.5008a97.8432 97.8432 0 0 0-28.8256-48.6912z" fill="#42D3AD" p-id="20330"></path><path d="M779.6224 923.2896H250.4704c-81.1008 0-147.0464-65.9968-147.0464-147.0464V444.5696c0-49.1008 21.0432-95.9488 57.7536-128.5632l178.5856-158.5152a269.24032 269.24032 0 0 1 362.1376 3.2768l169.2672 155.8016a172.288 172.288 0 0 1 55.5008 126.464v333.2096c0.0512 81.1008-65.9456 147.0464-147.0464 147.0464zM519.0656 150.6304c-49.3568 0-98.7648 17.5616-138.496 52.7872L201.984 361.9328a110.46912 110.46912 0 0 0-37.12 82.5856v331.6736c0 47.2064 38.4 85.6064 85.6064 85.6064h529.152c47.2064 0 85.6064-38.4 85.6064-85.6064V443.0336c0-30.7712-13.0048-60.416-35.6352-81.2544l-169.2672-155.8016c-40.0384-36.864-90.624-55.3472-141.2608-55.3472z" fill="#2E3138" p-id="20331"></path><path d="M508.16 735.1296c-82.5856 0-149.76-67.1744-149.76-149.76 0-82.5856 67.1744-149.76 149.76-149.76s149.76 67.1744 149.76 149.76c0 82.5856-67.1744 149.76-149.76 149.76z m0-238.08c-48.6912 0-88.32 39.6288-88.32 88.32s39.6288 88.32 88.32 88.32 88.32-39.6288 88.32-88.32-39.6288-88.32-88.32-88.32z" fill="#2E3138" p-id="20332"></path></svg>