<?xml version="1.0" standalone="no"?><!DOCTYPE svg PUBLIC "-//W3C//DTD SVG 1.1//EN" "http://www.w3.org/Graphics/SVG/1.1/DTD/svg11.dtd"><svg t="1634880041476" class="icon" viewBox="0 0 1024 1024" version="1.1" xmlns="http://www.w3.org/2000/svg" p-id="10980" xmlns:xlink="http://www.w3.org/1999/xlink" width="20" height="20"><defs><style type="text/css"></style></defs><path d="M691.78 175.3c-4.3 9.74-13.54 15.06-20.24 22.66-2.6 2.95-7.6 5.22-5.88 9.91 2 5.4 7.6 3.85 11.9 3.86 30.39 0.11 60.8-0.29 91.19 0.12 27.06 0.36 54.1 1.56 81.16 2.38a2.62 2.62 0 0 1-1.08 3.81c-4.58 2.5-9.6 1.91-14.48 1.92q-77.65 0.09-155.31 0c-8.48 0-19.39 1.7-22.88-7.64-3.64-9.78 5.17-16.28 12.44-21.76 6.32-4.75 9.52-12.42 16.18-16.79a12 12 0 0 1 3.77-2.3c2.57 0 4.35 0.7 3.23 3.83z" fill="#00AEFF" p-id="10981"></path><path d="M849.73 216.6a15.66 15.66 0 0 0 0.18-2.37c28.86 7 52.47 22.28 70.94 45.44 2.56 3.22 4.6 6.81 8.22 9 0 1.66 0.08 3.32 0.11 5-4.39 2.83-7.15-0.23-9.32-3.13-17.38-23.23-40.18-38.72-67.47-48a6.65 6.65 0 0 1-2.7-2.5 3.73 3.73 0 0 1 0.04-3.44zM691.78 175.3c-0.85-1.09-1.7-2.18-2.56-3.26-1-1.89 0-3.28 1.11-4.64 8.58-8.3 17.6-16.14 25.68-25 3.7-4.05 7-9.62 14-8.58l1.32 1.12c-10.67 15.89-23.49 29.72-39.55 40.36z" fill="#00AEFF" p-id="10982"></path><path d="M731.31 104.9c10.81 9.19 4.92 19.61 2.17 29.79a8.82 8.82 0 0 0-2.11 0.25l-0.92-0.43c-4.25-7.9 1.92-16.41-1.46-24.37a6.72 6.72 0 0 1 2.32-5.24zM364.42 214c4.23-9.91-1.36-14.37-9.63-17.34-14.61-14.35-29-28.9-43.92-43a114.53 114.53 0 0 1-16-18.76c-5.71-19.92-3.1-30.42 9.92-39.85a2.58 2.58 0 0 1 3.23-0.15 5.78 5.78 0 0 1 0.31 3.46c-1 2.7-2.73 4.94-4.24 7.33-8.52 13.48-8.16 17.9 2.45 30 16.87 16.61 32.54 34.41 50.26 50.17 4.45 4.64 9.48 8.77 13.11 14.08 3.15 4.6 6.6 9.52 1.67 15.17-2.58 1.18-5.06 1.11-7.16-1.11zM89.52 283.28q1.26-4.86 2.51-9.72l4.44-2.93 0.93 0.66c1.36 0.63 2.59 1.38 2.94 3a8.55 8.55 0 0 1-2.34 5.32c-1.69 1.83-3.39 3.66-5.79 4.6a3.07 3.07 0 0 1-2.69-0.93zM691.57 907.51c-3.68-19.11-7.2-22.11-26-22.1-99.82 0.06-199.64 0.35-299.46-0.1-14.59-0.06-25.15 2.47-28.29 18.44-0.28 1.39-2 2.49-3 3.73a6.65 6.65 0 0 1-1.94-2.79 19 19 0 0 1 0-8.78 21.39 21.39 0 0 1 1.1-3.6c3.21-8.22 9.49-12.77 17.78-15 53.95-1 107.89-0.28 161.82-0.42 51.88-0.14 103.76-0.06 155.64 0 7.42 0 14.92-0.25 21.16 4.85a12.94 12.94 0 0 1 2.71 3.32c2 3.64 1.88 7.9 3.45 11.77 11.9 29.29 29.34 32.15 61.8 24 4.17-1 7.47-5.42 12.54-3.31-4.12 12.72-16.5 15.17-26.22 16.44-18.09 2.35-35.06-2.74-46.2-19.47-1.82-2.68-4.59-4.67-6.89-6.98z" fill="#00AEFF" p-id="10983"></path><path d="M770.53 912.43c0.2 1 0.41 2.08 0.61 3.12a5.4 5.4 0 0 1-0.33 2c-11.47 8.28-24.23 10.62-38.3 10.13-22.77-0.8-39.14-16.08-40.94-39.87 7.7 1.7 8.65 9.1 11.71 14.42 11.35 19.71 32.45 26 52.72 15.46 4.58-2.44 8.46-6.97 14.53-5.26zM731.31 104.9c-0.09 1.72-0.17 3.45-0.26 5.17l-1.53 0.81a6.62 6.62 0 0 1-2.95-1.63c-6.89-9.07-15.22-14-26.89-9.33C688.3 110 676 119.18 666.7 131.41a17.06 17.06 0 0 1-11.32 6.87 5.87 5.87 0 0 1-3.33-0.76 2.46 2.46 0 0 1-0.83-2q0.09-1.11 0.33-1.11c10.84-11 21.54-22.22 32.54-33.09 16.44-16.23 33.28-14.86 47.22 3.58zM572.51 214c1.67-9 11.3-11.94 15-19.44 9-5.78 13.94-16.27 24.15-20.62a4 4 0 0 1 2 2.79c-8 16.28-22.46 26.47-35.52 38-1.64 1.32-3.95 0.86-5.63-0.73z" fill="#00AEFF" p-id="10984"></path><path d="M651.55 134.42l0.34 2.89c-0.12 0.58-0.23 1.15-0.34 1.73-10.66 13.12-22.77 24.81-35.55 35.84a4.2 4.2 0 0 1-3.4-0.08l-1-0.91c11.23-15.29 24.26-28.73 39.95-39.47zM421.71 174.39c2.28 5.67 9.05 8 10.53 14.26-5.7 3.52-8.12-2.54-12.09-4.11a50 50 0 0 1-8.15-6.94c-23.11-23.84-46.89-47-70.31-70.54-6.57-6.59-13.92-9.77-23.21-8.94-3.64 0.32-7.47 0.19-10.47-2.63l-3.21-0.43c15.2-9.85 28.82-8.32 43.2 4.94 5.45 5 10.79 10.14 16.18 15.22 13.24 19.9 32 34.28 49.71 49.73 0.63 4.75 3.49 7.71 7.82 9.44zM117.13 850.5c-4.06-9.71-12.77-15.3-19.78-22.4-3.57-11.92-11.59-21.44-17.26-32.23-3.84-16.34-12.5-31.65-10.4-49.24a3.16 3.16 0 0 1 3.66-0.21c4.62 3.3 4.44 8.62 5.41 13.35 8.32 40.94 28.8 73.74 63.33 97.94 17.91 12.57 37.54 18.36 58.91 19.34 9.06 0.42 18.15 0 27.22 0.11 14.6 0.23 18 3 22.75 17.55 0.07 4.81 2.85 8.35 5.65 11.88 1.21 1.81 2.24 3.74 3.47 5.54 5.88 6.48 11.74 13 21.54 12.9a33.41 33.41 0 0 1 3.59 0.68 38.75 38.75 0 0 0 16.64-0.18c4.68-1 9.5-2.16 13.43 2.05-17.88 15.71-50.85 5.53-63.57-13.22-2.06-3-4-6.18-6-9.27-1.65-15.89-5.32-20-20.57-19.63-30.75 0.7-60.28-3.87-88-17.84-4.56-8.12-14.05-10.55-20.02-17.12z" fill="#00AEFF" p-id="10985"></path><path d="M315.31 927.58c-10.83-2-21.72 6.88-32.52-0.16 6.7-7 15.52-5.36 23.81-5.84a11 11 0 0 0 11-5.69 22.57 22.57 0 0 1 8.4-7.69c2.91-0.86 5-4.11 8.61-3q0.12 1.16 0.21 2.31c-3.36 9.75-10.37 15.95-19.51 20.07zM72.27 746.59h-2.58c-3-5.35-2.36-11.21-2.36-17 0-117.23 0.14-234.46-0.13-351.69 0-21.88 2.1-43.29 7.74-64.38 8.83-8.19 6.73-21.65 14.58-30.32l2.51 0.1c2.52 2.57 2.61 5.72 2.16 9-5.81 16.7-13.51 32.55-16.09 50.35-1.06 7.31-2.36 14.5-2.36 21.89q0 181.59-0.09 363.18c-0.01 6.39 1.74 13.28-3.38 18.87zM936.83 808.58l-2.67-0.11c-2.33-6.13 1.24-11 3.43-16.19 6.08-14.3 11.56-28.74 11.3-44.67a21.3 21.3 0 0 1 1.06-4.32c0.91-4.93 0.62-9.9 0.62-14.84v-347.8c0-5.34 0.52-10.74-1.12-16-1.55-5.73-1.1-11.61-1.22-17.44-0.08-5.28 0.63-10.63-1.05-15.82a18.1 18.1 0 0 1-0.64-3.94c0-2.75 0.39-5.36 2.78-7.19 6.56 14.41 9.18 30.05 9.23 45.37 0.47 127.71 0.18 255.43 0.11 383.15-7.09 9.19-5.37 21-8.77 31.32-3.35 10.2-8 19.33-13.06 28.48zM850.06 219c30 9 54.89 25.17 72.85 51.24a8.49 8.49 0 0 0 6.27 3.46c0.15 1.38 0.29 2.77 0.44 4.15 4.23 11.08 10.46 21.26 14.45 32.45 1.37 3.83 3.66 7.48 1.14 11.64-1.33 1.2-2.7 1.71-4.22 0.28a17.29 17.29 0 0 1-4.3-7.36c-8.55-26.36-26.21-46.46-45.05-65.74a53.92 53.92 0 0 0-4.77-4.91c-0.94-0.68-1.84-1.39-2.78-2.07-8-4.14-15.33-9.74-24.54-11.35-13-4.59-26.4-5.62-40.11-5.51-37.44 0.3-74.88 0.35-112.32-0.14-5.4-0.07-13.75 3.36-15.14-6.84 51.53-1 103.06-0.25 154.59-0.39a9 9 0 0 1 3.49 1.09z" fill="#00AEFF" p-id="10986"></path><path d="M944.18 323.07c0.5-11.3-5.6-20.38-10-30-2.2-4.84-4.44-9.71-4.55-15.19 9.16 13 16.17 26.9 19.69 42.47L949 328c-3 1-3.87-1.19-4.81-3.27 0.02-0.54 0-1.1-0.01-1.66zM691.52 219c-10.28 0-20.56-0.24-30.83 0.07-9.58 0.28-10.87-5.16-7.36-11.72 3.34-6.24 6.12-13.47 14.18-16.23 3.79-1.31 7.46-4.65 8.35-8.62 1.69-7.5 6.69-8.49 12.87-8.32-9.48 9.95-19 19.84-28.4 29.88-6.45 6.9-2.29 10 4.64 11.36a73.5 73.5 0 0 0 13.43 1q85.67 0.14 171.33 0.12a12 12 0 0 1 0.33 2.38zM691.44 169.41c-1.14-6.21 4.64-7.68 7.52-11.2 5.74-7 14.89-11.19 17.35-20.89 8.12-7.26 8.48-18 12.33-27.23h2.42c5.5 8.29-0.14 16.3-0.61 24.44-12.64 6-18.86 19-29.67 27.05-3.26 2.42-6.24 5.2-9.34 7.83zM136.67 238.92c1.49 7.82-5.56 10.63-9.45 14.77-11 11.69-21.62 23.14-26.77 39-2.33 7.15-8.09 13.13-11.88 19.86s-10.93 13.35-1 21.22c3.4 2.71 0.18 6.75-1.84 8.59-8.71 7.9-8.6 17.92-8.59 28.43 0.13 120.8 0 241.59 0.17 362.38 0 25.49 7.71 49.12 20.38 71.18 2.24 3.9 5.75 4 9.54 4.23 5.13 0.39 10.55-1.52 15.5 1.51-0.19 4.14-3.32 3-5.42 3.39-9 1.49-10.51 7.49-5.34 13 9.16 9.84 18.25 19.68 30 27.27 12.31 7.95 24.62 14.91 38.73 18.52 18.83 4.82 37.51 5.35 57.55-1.6-7.47-7-15.76-4.61-22.28-7.7 0.51-5.28-1.65-13.75 8.33-9.81 7.17 2.82 21.62-2.44 18.35 14-0.51 2.53-1.73 4.62 0.39 6.63 8.31 7.89 8.42 19.28 12.48 29-4.52 1.24-5.19-2.94-7.24-5.17-0.8-12.62-7.15-18.25-20.1-17.48-11.91 0.7-24 1.11-35.81-0.07-29.42-2.95-53.34-17.26-74-37.86-25-24.94-39.13-55.07-43.89-89.87-0.27-2-1.43-3.83-2.18-5.74V368.31c0-23.74 4.63-46.37 15.85-67.41 1.75-3.27 0.4-7.61 3.93-10.08 2.47-3.82 2.05-8.82 4.82-12.52l2.62-4.75c4.3-5.61 7.92-11.71 12.49-17.11l4.52-3c5.11-5.75 10.32-11.37 17.42-14.76h0.08a1.69 1.69 0 0 1 2.64 0.24zM374.33 216.47c-1 7-6.54 4.94-10.61 5-22.58 0.17-45.16 0.4-67.74 0-26.89-0.47-53.71 2.72-80.68 0.34a183.85 183.85 0 0 0-48.92 2.19c-0.85-0.52-1.13-1-0.82-1.51s0.59-0.71 0.89-0.71l7-3c9.88-3.94 20.23-1.57 30.36-2.15 4.48-0.25 9 0.21 13.39-1.16 45.43-0.18 90.86 0 136.28-0.08 6.91 0.48 13.98-1.17 20.85 1.08z" fill="#00AEFF" p-id="10987"></path><path d="M354.6 216.5l-138.69 0.14c-13.34 1.55-26.66 2.32-40-0.32 3.07-2.95 6.95-2.16 10.57-2.16q84.09 0 168.19 0.09c0.77 0.54 1 1.05 0.72 1.54s-0.52 0.71-0.79 0.71zM166.45 221.77c0 0.74-0.07 1.48-0.07 2.22-8.83 7.11-19.21 11.14-29.71 14.92q-1.32-0.09-2.64-0.21c8.31-10.42 19.81-14.7 32.42-16.93z" fill="#00AEFF" p-id="10988"></path><path d="M175.94 216.32l40 0.32c-13.95 5.1-28.34 1.28-42.5 2.11zM134 238.66c-5.29 5.52-10 11.77-17.42 14.76 3.27-7.85 8-14.05 17.42-14.76zM112 256.44c-2.43 7-5.79 13.26-12.49 17.11l-2.12-2.26c6.47-3.39 7.4-12.22 14.61-14.85zM354.6 216.5c0-0.75 0.06-1.5 0.1-2.25l9.72-0.28 7.51 0.09c0.85-1.16 1.67-1.2 2.45 0.06 0 0.78 0 1.57-0.05 2.35zM414.18 176.87C405 176.63 398.46 173 396 163.5c-0.59-2.3-1.81-5.59-3.57-6.26-10.43-4-18.21-10.22-25.1-19.45-3.21-4.31-10.9-5.06-11.11-13.41-0.1-3.87-4.52-6.75-8.11-8.78s-7.53-5.1-11.09-0.86 0.12 7.43 3.14 10.23c4.42 4.08 10.19 7.4-1 11-4.16 1.33-6.44 8.06-10 12-6.59 7.37 3.12 8.33 4.84 12.33 4.81 11.21 18.29 15.14 23.13 26.54a1.47 1.47 0 0 1-2.59 0.09C336.36 172.05 321 154.45 305 137.34c-14.18-14.15-7-27 2.43-39.69a7 7 0 0 1 0.55-2.16c23.75-5.17 38.38 8.56 51.8 24.91a209.76 209.76 0 0 0 28.7 28.77c9.89 8.12 17.58 18.06 25.7 27.7z" fill="#00AEFF" p-id="10989"></path><path d="M307.47 97.65c-0.09 0.8 0.12 1.84-0.31 2.38-9.3 12-11.21 24.32-2.12 37.31-13.94-8.48-13.4-25.34 2.43-39.69zM354.53 186.89l2.59-0.09c9.38 6.82 21.6 11.84 17.27 27.32l-2.46-0.06c0.72-13.23-11.93-17.91-17.4-27.17zM96.9 278.3c0.43 5-0.85 9.28-4.88 12.51v-7.43a8 8 0 0 1 4.88-5.08zM342.24 880.36c6.21-5.07 13.79-6.2 21-4.7 18 3.76 36.14 2 54.19 2.08 77.55 0.24 155.1 0 232.65 0.23 10.92 0 21.81-5.09 32.8 0 3.71 1.71 8.2 2 8.59 7.42-6.13-3.81-12.69-5.15-20-5.14q-162.11 0.27-324.21 0.2c-1.69 1.29-3.37 1.55-5.02-0.09z" fill="#00AEFF" p-id="10990"></path><path d="M342.24 880.36l5 0.06c-4.25 4.84-10.06 8.38-12.42 14.81-0.72-6.55 1.01-11.88 7.42-14.87zM327.28 910l7.54-14.75c-0.08 3.3-0.17 6.61-0.25 9.91-2.38 1.71-3.41 5.42-7.29 4.84zM929.33 811.06c7.42-20.39 18.2-39.7 19.81-61.95 0.81-1.16 1.64-1.11 2.47 0 1.36 21.9-10.06 40-17.45 59.38zM914.13 835.67c3.14-8.06 9.59-13.61 15.06-19.91-1.19 9.54-7.5 15.24-15.06 19.91zM889.54 858c3.22-4.49 6.27-9.2 12.5-9.89-3.04 4.7-6.04 9.46-12.5 9.89z" fill="#00AEFF" p-id="10991"></path><path d="M902 848.13a17.62 17.62 0 0 1 7.39-7.56c-0.02 4.89-2.52 7.37-7.39 7.56zM572.68 214.18c-1 6-5.78 4.79-9.68 4.79-32.49 0.07-65-0.21-97.46 0.24-7.1 0.1-11.53-3.46-16.21-7.34a148.9 148.9 0 0 1-28-29.88c4.41 0.94 5.86 6.74 10.9 6.67a6.59 6.59 0 0 0 1.59-0.25c11.26 16.41 23.73 28 46.76 26.29 30.55-2.28 61.42-0.54 92.1-0.52zM728.64 110.09c-0.16 10.86 3.14 23.3-12.34 27.23-13.34-1.46-19.36-10.67-23.52-22-2.13-5.81-5.38-5.09-9-1.21-5.35 5.66-11.65 10.65-15.94 17-3.66 5.4-7.82 6.59-13.43 6.19 13-11.93 26-23.78 38.82-35.9 1.81-1.71 3.15-3.61 5.82-3.79 14-5.6 21.12 5 29.61 12.47z" fill="#00AEFF" p-id="10992"></path><path d="M728.62 110.08c-3.82-0.26-8.2-1.49-9.74-4.39-4.58-8.65-12-8.4-19.87-8.07 14.76-5.32 23.43-1.62 29.61 12.46zM651.89 137.31c1.59 9.72-7.37 12.37-12.44 16.68-8.14 6.9-12.18 19-24.77 20.42a343.92 343.92 0 0 1 37.21-37.1zM258 912.62c10.52 0.27 12.79 13.11 22.43 14.72-11.32 0.95-17.01-6.68-22.43-14.72zM248.22 897.61l7.25 5.17v4.85c-3.87-2.28-7.28-4.9-7.25-10.02zM310.05 925c2.13-4 4.9-7.12 9.76-7.56-1.94 4.18-4.75 7.27-9.76 7.56zM951.61 749.09h-2.47c0-124.5-0.18-249 0.17-373.51 0.05-17.8-7.49-34.65-5.13-52.53L949 328c0.06 0.82 0.13 1.65 0.19 2.48 2.84 4.63-0.69 10.24 2.28 14.86q0.07 8.64 0.17 17.29c1.94 3.48 1.09 7.27 1.09 10.91q0.08 181.09 0 362.19c0 3.64 0.88 7.44-1.12 10.9 0.05 0.84 0.03 1.65 0 2.46z" fill="#00AEFF" p-id="10993"></path><path d="M951.65 746.65v-384c3.85 3.73 2.3 8.54 2.3 12.89q0.12 179.11 0 358.24c0.05 4.34 1.59 9.16-2.3 12.87zM951.51 345.36c-4.27-4.42-1.72-9.88-2.28-14.86 4.14 4.44 1.67 9.88 2.28 14.86zM892.17 246.26a23.07 23.07 0 0 0-2.6 3.88c-2.18 5.22-6.64 3.22-10.37 3.37-1.75 0.08-3.56-1-3.27-2.67 0.71-3.9 3.69-5.85 7.34-7a18.94 18.94 0 0 0 3.92-2.45 8.55 8.55 0 0 1 4.98 4.87zM887.18 241.33c-9.38-0.58-17.41-3.61-22.26-12.34a89 89 0 0 1 22.26 12.34zM176.17 768.94c-7.38-5.81-9.83-13.79-9.83-22.74q0-196.86 0.19-393.7c0.06-26.76 23.12-50.31 49.44-52 75-4.84 150.09-1.64 225.13-2.07 119.27-0.69 238.55 0.29 357.82-0.45 36.69-0.22 59.82 27.87 61.05 59.7 4.61 120 1.75 240.05 1.76 360.09 0 13.6-0.83 27.54-5.8 41.21-9.68 26.65-26.39 39.93-55.25 39.93h-473q-50.15 0-100.28-0.07c-17.57 0-33-5.36-45.42-18.2-3.21-3.3-6.67-6.3-5.77-11.58 6.57-3.67 10.18 1.55 13.55 5.22 13.77 15 30.86 17.47 49.71 14.23 5.32-0.92 10.7-0.74 16.06-0.74q248.87 0 497.73-0.05c14.43 0 28.62 2.76 43.13 2.52 19.66-0.32 35.7-7.46 46.39-23.56 7.1-10.69 8.48-23.85 8.48-36.74q0.08-162.79 0-325.6c0-14.44 1-28.92 0-43.32-1.36-21.5-10.36-38.64-30.55-48.57-5.76-2.84-11.87-2.88-18.08-3.26-32.89-2-65.75-0.46-98.64-0.3q-237.72 1.2-475.44-0.13c-35-0.25-53.79 26.22-53.8 54.23v375.13c0 5.4 0.39 10.66 2.59 15.73s2.85 10.34-1.17 15.09zM151.51 552.28v162.11c0 3.3 0 6.6-0.13 9.89-0.1 2.21-1.05 4.21-3.49 4.27s-3.54-1.85-3.63-4.09c-0.16-3.7-0.17-7.42-0.17-11.13v-324.2c0-6.06 1.25-12.36-4.27-17.3-3.86-3.46-0.61-6.1 2.29-7.62 3.31-1.72 3.54 1.27 4.62 3.59a53.78 53.78 0 0 1 5 23.62c-0.36 53.58-0.22 107.24-0.22 160.86zM511.92 855.6c39.61 0 79.26 1.11 118.81-0.51 17.41-0.71 35 2.73 52.3-1.67 3.5-0.89 7.79-0.88 8.31 4.6 0.48 5.09-0.78 9.17-6.7 9.79-2.44 0.26-5.46 0.83-7.32-0.26-13.32-7.82-27.74-4.55-41.89-4.55q-121.92 0.15-243.84 0a68 68 0 0 1-7.42 0c-3.34-0.38-8.9 1.62-8.75-3.78 0.13-5.22 5.66-3.51 9-3.52q63.76-0.2 127.5-0.1zM930.58 356c7.87 21.33 7.82 370.32 0 384zM837.91 246.12c-7 0-14 0.17-20.93-0.07-3-0.11-5.83-1.57-5.47-5.23 0.28-2.81 2.72-4.11 5.29-4.2 13-0.46 26-1.06 39-0.9 3.76 0.05 9.08 1.34 8.38 6.92-0.67 5.34-5.72 3.4-9.05 3.57-5.74 0.28-11.49 0.07-17.24 0.07zM840.86 866.46c-15.26 8.69-28.54 3.8-41.48-4.21-1.94-1.2-3.22-2.7-1.51-4.92 2.09-2.74 6.58-5.88 8.07-3.35 7.8 13.21 21.37 6.84 31.83 10.51a21.61 21.61 0 0 1 3.09 1.97zM215.92 863c-0.46 4.07-1.88 7.32-6.76 6.86-0.79-0.08-2.19-1.7-2-2.35 1-4.94 5.17-4.32 8.8-4.52zM317 135.82c2.61 0.47 2.81 2.5 2.69 4.52-0.1 1.6-0.56 3.42-2.63 3.31a3.67 3.67 0 0 1-3.74-3.82c-0.02-2.33 1.54-3.49 3.68-4.01z" fill="#00AEFF" p-id="10994"></path><path d="M951.28 373c-0.08-16.68-1.86-33.7-7.1-49.94a28.91 28.91 0 0 1-2.52-4c-5.52-13.19-7.81-29.67-17.24-38.78-11.29-10.91-18.36-25.79-32.25-34-4.09-1.62-5.5 4.26-9.91 3.18 0.48-3.41 6.49-3.75 4.93-8.09-8.12-2.87-15.86-6.39-22.26-12.34a104.4 104.4 0 0 0-40.63-7.7c-40 0.66-80 0.28-119.94 0.15-4.33 0-9.18 1.65-12.83-2.4-7.94-2.69-16.12-0.53-24.17-1.23-14.36-1.23-15.42-4-8.31-16.23 4.55-7.82 14.82-9.36 18.1-17.67 2.26-5.72 6.84-7.55 11.59-9.69a17.65 17.65 0 0 1 0.49-2.18l2.22-2.63c5.53-8.66 14.33-14.21 20.84-21.95 2.78-3.3 7.19-5.81 5.29-11.28-4.81-5.92-13.67-5.34-17.85-13.8-8.67-17.53-9.62-17.08-23.52-3.14-3.2 3.21-7.43 5.87-9.22 9.88-2.61 5.88-7.55 6.82-12.61 8.18h-2.48c-10.67 14.11-23.57 26-37.21 37.1a15.07 15.07 0 0 0-2.09 0.39c-11 15.46-23.38 29.52-40.08 39.15l0.17 0.23a10 10 0 0 1-6.84 2.33c-34.2 0.13-68.39 0-102.58 0.06a14.21 14.21 0 0 1-10-4c-11-9.84-21.27-20.41-31.94-30.58l-7.16-5.12c-15.45-7.16-20.54-26.33-37.22-32.14l-0.47-0.14c0.11 0 0.26-0.15-0.17-0.83-6.44-10.24-18.17-15.93-23.31-27.45-1.44-3.24-5.55-4.83-9.31-5.46-7.5-1.26-13.45 5.43-8.88 10.87 7.09 8.46 2.08 12.35-3.2 17.57-7.49 7.42-8.51 14-0.14 22.86 8.13 8.65 17.87 15.68 25 25.24 6.89 8.19 20 12.69 16.22 27.22a6.88 6.88 0 0 1-2.84 2.56c-5.22 1.27-10.59 0.84-15.91 0.85-24.23 0.06-48.46-0.06-72.69 0-21.63 0.1-43.16 2.27-64.91 0.34-15.72-1.38-32-2.54-47.3 4.31-12.4 3.76-24.17 8.72-34.11 17.29-20.71 18.88-35 42.21-46.88 67.26-4.15 8.79-10.58 17-5.88 27.81 1.24 2.82 0 5.82-1.87 8.13-5.54 7-5.65 15.12-5.64 23.49q0.1 181.35 0.08 362.69a150.35 150.35 0 0 0 17 69.85c4.35 8.45 9.92 13.56 20.57 12.54-5.45 5.14-7 10.44-3.26 15.33a136.56 136.56 0 0 0 53.56 42.58c17.58 7.76 37.13 10.25 56.76 8.21 7.17-0.75 18 1 18-8.16 0.06-9-10.86-7.46-17.94-8.42a7.25 7.25 0 0 0-3.11 1.45c-0.14-0.27 0.21-0.28 0.19-0.39 6-7.28 22.07-7 22.39 0.77 0.64 15.13 12.82 25.46 14.23 39.85a18.46 18.46 0 0 0 2.33 4.63l2.5 5c7.91 4.24 12 14.29 22.43 14.72a18.62 18.62 0 0 1 2.36 0.09 98.75 98.75 0 0 1 27.3-2.42c3.36-2.37 6.47-5.07 9.75-7.55a16.66 16.66 0 0 1 7.48-7.39c5.87-3.2 5.35-9.67 7.54-14.75 0.35-7.64 5.26-11.9 11.3-15.31 11.27-4.62 22.77-0.71 34.16-0.76 45.67-0.16 91.34 0.2 137-0.13 51-0.37 102 1.29 153-0.89 7.49-0.32 15.89-0.36 21.17 7.22 0 0.8 0.08 1.6 0.12 2.4 3.57 6.37 7.33 12.64 10.66 19.13 6.24 12.15 16.16 17.08 29.65 18.3 15.16 1.36 27-4.77 38.65-12.76 2.93-4.44 6.2-8.57 7.69-13.95 5.14-18.59 8.53-19.64 28-18.86 13.67 0.55 27.89 2.63 41.27-1.57 14.85-4.65 29.65-9.95 42-20 4.71-2.61 7.9-7.14 12.5-9.89a18.65 18.65 0 0 0 7.38-7.56l4.73-4.9c5.41-6.34 11.56-12.12 15.06-19.91 0-1.57 0.1-3.13 0.14-4.7 11.74-20.34 20.38-41.69 21.5-65.49a30.1 30.1 0 0 0 0.75-8.58c0.06-121.44 0.32-242.77-0.27-364.1z m-96.71 362.69c-0.27 37-22.87 58.7-60.25 57.73-176.55-4.59-353.13-0.84-529.7-2-10.27-0.06-20.5 0.7-30.77 1.49-17 1.31-33.76-0.78-45.84-15.73-2.93-3.63-5.95-8.21-11.77-8.15l-0.07-0.08c-10.83-135-1.77-270.15-4.68-405.21-0.58-26.88 12.36-46.6 34.68-55.81 6-2.49 12.07-2.33 18.21-2.34 160.14 0 320.27 0.29 480.4-0.29 31.65-0.12 63.31 0 94.92-0.36 30.85-0.33 54.9 24 55.06 54.4q0.99 188.17-0.19 376.35z" fill="#00AEFF" p-id="10995"></path><path d="M235.49 461.61c23.09-7 47.32-8.89 70.52-15 17.75-4.69 36.89-2.91 53.56-12 13.16-2.31 26.27-5 39.49-6.75 5.4-0.71 12.4-4.31 15.68 4.18l-1.49 1.51c-46.37 5.63-91.19 19.62-137.47 25.74-11.48 2.67-22.56 8-34.85 5.49a8 8 0 0 1-5.44-3.17zM610 451.93c0.66-1 1.75-1.91 1.92-3 3.56-23.15 3.53-23.1 26.53-19.13 6 1 12.07 1.62 18.1 2.4 31.93 9.22 64.91 13.2 97.42 19.52 12.89 2.51 25.42 6.47 38.54 8.22 7.63 1 12.39 8.06 9.8 15.84-4.85 14.57-5.43 29.87-9.12 44.59-3.77 15-4.83 15.63-20.16 11 2-3.42 6.65-2.32 8.85-5.34a50.88 50.88 0 0 0 1.65-6.16 45 45 0 0 1 3.72-10.05c4-10.84 4.4-22.45 7-33.59 1.41-6-1.73-10.22-8.52-11-18.41-2.12-36.26-7.34-54.6-9.86a51.34 51.34 0 0 1-7.8-1.17c-28.16-5-56.09-11.09-84-17.45-16.68-3.8-21.46 0.35-21.85 14.88-0.22 8.43-3.56 16.69-6.78 24.67a2.59 2.59 0 0 1-3.62 0.3c-0.69-8.43 1.37-16.51 2.92-24.67z" fill="#00AEFF" p-id="10996"></path><path d="M607.09 476.58c0.78 0 1.56 0.05 2.34 0 1 0.73 2.34 1.68 2.21 2.77-1.83 15.38 8.33 17.53 20 19.51 10 1.68 19.82 4.5 30.07 4.78 8 2.35 16 5.11 24.62 4.52a27.51 27.51 0 0 1 5.89 1.07c18.21 5.07 37 7.32 55.46 11.16 7.65 1.6 15.22 3.43 22.3 6.89a2.67 2.67 0 0 1 0.82 3.57c-23.57-0.58-46.23-7-69.23-11-26.69-4.71-53.19-10.46-79.69-16.11-19.38-4.15-20.66-6.86-14.79-27.16z" fill="#00AEFF" p-id="10997"></path><path d="M770.84 530.89v-2.27c4.89-4.24 9.79-3.68 14.7 0-3.45 4.24-8.46 1.36-12.53 2.74a4.85 4.85 0 0 1-2.17-0.47zM414.06 637.62c4.16 0.7 8.94-1.77 12.43 2.4-8.67 3.53-15.48 13.44-26.82 7.84l-0.8-0.54 2.79-2.35c2.79-2.57 6.79-2.79 9.75-5z" fill="#00AEFF" p-id="10998"></path><path d="M399.67 647.86c10.2 1.7 16.56-9.72 26.82-7.84 7.4 4 10.92 12.83 19.41 15.43 15 10.72 25.59 9.25 37.87-5.28 5.68-2.65 7.93-8.47 11.84-12.76 1.72-1.44 3-4.21 5.93-1.82 1.49 3.26 0 6-1.51 8.71-17.87 29.87-42.15 34.2-67.62 11.54-6.84-6.08-13.34-7.12-21.12-3.18-4.3 1.32-5.8 3.74-3.74 8.15 1.63 3.48 4.63 6.88 1.86 11.15-10.35-5.16-11.29-14.13-9.74-24.1z" fill="#00AEFF" p-id="10999"></path><path d="M500.81 635.21l-5.19 2.2c1.82-6.89 6.89-11.87 10.5-17.7 3-4.84 7.16-6.62 12-1.9a2.18 2.18 0 0 1 0.8 1.93c-0.11 0.72-0.25 1.08-0.43 1.07-8.03 2.19-10.88 10.71-17.68 14.4z" fill="#00AEFF" p-id="11000"></path><path d="M517.92 620.7l0.21-2.89c6.85 5.15 7.44 15 14.88 19.75v0.06a4 4 0 0 1 0.61 4.75 3.84 3.84 0 0 1-3.2 0.8c-7.42-5.64-13.42-12.12-12.5-22.47z" fill="#00AEFF" p-id="11001"></path><path d="M572.7 657.56l2.28-0.18c1.88-1.32 3.72-1.48 5.48 0.21-2.2 8.53-9.6 9.34-16.29 10.13-15 1.79-30.68-10.87-31.54-24.86l0.84-0.65c5.38 0.39 7.33 5.31 10.83 8.18 7.48 10.27 17.7 9.61 28.4 7.17zM267.45 530.84l-24.39 0.34c-7.61-7.45-7.43-17.27-8.16-26.82a3.52 3.52 0 0 1 3.59-1.2 8.7 8.7 0 0 1 4.27 4.15c5.27 15.19 5.24 15 20.9 12.78 31-4.42 61.57-11.14 92.23-17.42 15.29-3.13 30.94-4.4 46.35-7 8.95 2 14.18-3.67 19.42-9.36 5.79 10.88-0.74 13.45-9.76 15.19q-69.42 13.42-138.77 27.26a35.73 35.73 0 0 0-5.68 2.08z" fill="#00AEFF" p-id="11002"></path><path d="M421.66 486.28c-1.29 10.58-7.6 14.13-17.57 12.56C423 481.59 410 462.89 406 444.92c-1.37-6.21-8.22-4.39-12.8-3.28-32.81 7.9-66.22 12.44-99.48 17.89-6.35 0.36-12.95 2.33-18.47-2.76 19.93-4.07 39.88-8.07 59.8-12.24 17.54-3.67 35-7.59 52.58-11.29 8.52-1.79 17.17-1.22 25.78-0.91q4.11 19.68 8.21 39.36 0.04 7.31 0.04 14.59zM235.9 503.78c1.1 9.47 2.33 18.91 7.16 27.4-9.23-2.31-8-11.08-8.76-17-1.63-12-3.08-24-5.58-35.91-1.25-5.94-3.69-14.52 6.77-16.67l5.42 0.31c-5.59 8.07-5.87 16.4-2.74 25.69 1.74 5.19 1.83 11.26-2.27 16.18z" fill="#00AEFF" p-id="11003"></path><path d="M235.9 503.78c-0.49-9 0.2-18.08-3.61-26.63-3.95-8.88 4.11-11.08 8.62-15.23 12.05 2.25 22.77-4.36 34.36-5.15l19.91 0.09c2.5 6.95-3 7.66-7.08 7.88-9.75 0.53-18.92 3.78-28.43 5.2-2.41 0.25-4.84 0.06-7.26 0.1-12.85 0.2-12.84 0.34-11.08 12.94 1 7.18 1.71 14.48-3.11 20.86-0.78 0-1.55-0.01-2.32-0.06zM691.37 511.47l-4.74-0.22c-9-1.92-17.75-4.62-26.82-6.17-15 0.07-28.87-5.93-43.49-8-4.87-0.67-5.11-5.23-5.51-9.66-1.44-16 5.38-30.63 7.47-46 1.08-8 9.05-7.32 15.15-6.73 12.67 1.24 24.79 5.42 37.3 7.71 17.67 3.23 35.15 7.48 53.06 9.4l7.16 0.38A264.85 264.85 0 0 0 780 463c16.91 2.12 18.39 3.87 13.82 19.76-2.7 9.4-0.65 19.71-5.61 28.66a15.17 15.17 0 0 1-2.62 9.73c-3.15 6.22-8.52 5-13.84 4.23-26.98-3.68-53.6-9.22-80.38-13.91z" fill="#00AEFF" p-id="11004"></path><path d="M723.79 451.8c-26.89 0.6-52.29-8.18-78.41-12.42-3.61-0.59-7.12-1.94-10.74-2.33-8.57-0.92-14.67 0-15.59 11.57-1 12.06-6.95 23.43-6.91 36 0 7.16 1.47 11.39 9.94 12.15 13.39 1.19 26 7.05 39.71 7.22 0.84 0.52 1.12 1 0.84 1.58s-0.56 0.79-0.84 0.79c-15.88 1.11-30.54-5.23-45.85-7.6-5.39-0.83-7.21-4.86-7.09-9.89 0.1-4.08 0.39-8.15 0.59-12.23-0.18-12 6-22.77 6.16-34.85 0.11-6.82 5.35-10 12.94-9.83 13.26 0.38 25.51 5.19 38.28 7.64 19.07 3.63 37.99 8.09 56.97 12.2zM788.19 511.39c1.85-10.74 0.41-22.21 5.07-32.22 4.83-10.34-1.58-13.21-8.75-13.79-15.13-1.25-29.54-5.51-44.28-8.4-3.77-0.74-7.24-1.12-9.28-4.8 19.88 1.86 38.91 8.61 58.89 10.18 6 0.47 9 5.72 8.17 11.78-1.66 11.65-3.75 23.25-6 34.81-0.14 1.05-2.48 1.63-3.82 2.44zM691.37 511.47c20.16 0.29 39.5 6.49 59.41 8.26 11.53 1 23 5.72 34.79 1.39v7.49h-14.7c-15.53-3.11-31.26-5.49-46.52-9.57-10.96-2.91-23.09-0.49-32.98-7.57z" fill="#00AEFF" p-id="11005"></path><path d="M661.79 506.34V504c8.6 1.35 17.31 2.3 24.84 7.29-8.78 0.84-16.99-1.14-24.84-4.95zM495.56 689.33c-0.73 0.19-1.46 0.38-2.19 0.59l-1.26-1.53c1.79-13.87 17.5-20.74 32.06-13.74 7 3.38 13.42 7.92 20.49 11.33 9.32 4.5 18.29 6.79 28.34 2.1 5.29-2.47 11.24-2.15 17-0.69a6.72 6.72 0 0 1 3.17 2.36c-23.22 12.76-45.65 10.46-67.17-4-13.41-8.9-19-8.48-30.44 3.58zM426.66 689.4c-3.14-6.67-12.36-7.27-14.69-14.75a6.65 6.65 0 0 1 5.35-1.8c9.9 1.29 15.77 10.25 24.8 13.09 11.77 3.72 23.59 7.37 36.06 2.48a11 11 0 0 1 9.57 0.25c3.48 5.54-3.29 3.67-4.3 6-15.35 7.71-30.31 3.26-45.18-1.59-3.86-1.29-7.27-3.8-11.61-3.68z" fill="#00AEFF" p-id="11006"></path><path d="M483.45 694.64l5-4.92a3.64 3.64 0 0 1 4.7-0.8l0.21 1c-2.09 4.08-5.73 4.98-9.91 4.72zM416.6 674.66H412l-2.59-2.66c-1.55-3.32-2.77-6.86-4.72-9.93-3.85-6.07-2.75-9.9 4.36-11.7 1.67 3.57 3.86 6 8.4 5.8 5.47-0.21 8.25 3 8.3 8.44 0.06 6.1-2.09 10.32-9.15 10.05zM604.63 682l-9.5 2.83c-5.81-0.43-2.66-3.78-1.2-5.18 4.72-4.5 10.32-7.6 17.06-8l1.58 1c-0.37 4.98-6.33 5.35-7.94 9.35zM619.78 652.38c5.38 5 0.3 9.72-0.27 14.56l-6.94 5.63-0.45-0.36c-2.58-8.59 3.76-13.74 7.66-19.83z" fill="#00AEFF" p-id="11007"></path><path d="M619.78 652.38c1.13 8-6.38 12.73-7.66 19.83-5 5-15.13 3.28-17 12.6l-3.25 4.76c-8 0.37-15.67 1.12-23.75 3.73-15.49 5-28.29-5.25-40.4-13.18-10-6.52-18.7-6.63-28.56-0.9-4 2.33-6.23 5.09-6 9.71l-4.7 0.79c-15.19 3.43-30 6.21-45.72 0.33-9.94-3.7-16-12.84-26.14-15.39 5.3-2.25 8.13-6.45 6.89-11.93-1.61-7.13-6-2.4-10-2.31-6.15 0.14-7.63-4.61-4.44-10.09 10.8-7 18.8-4.27 27.36 5.22 15.74 17.44 44.29 13.92 57.09-5.93 1.54-2.38 3.19-4.69 4.8-7 4.27-2.09 4.41-6.61 6.06-10.25 1.71-3.81 3.87-7.74 8.33-8.19 4.8-0.49 7.45 3.61 8.79 7.31 2.74 7.62 8.7 12.78 13.08 19.13 15.76 22.9 36.15 20.86 57 1.63 11.45-10.54 12.72-11.26 25.94-2.43a11.67 11.67 0 0 1 2 0.36c0.12 0.71 0.21 1.45 0.28 2.2z" fill="#00AEFF" p-id="11008"></path><path d="M617.54 649.78c-11.82-6.82-18.86-1.62-27.45 7.65-16.68 18-40.66 15.08-55.94-4.5-5.25-6.72-12.34-12-14.39-21-0.68-3-3.23-6.1-7.08-5.72-3 0.3-4.89 2.91-6.14 5.53-2 4.21-1.67 10.13-8.24 10.87 0.83-2.46 1.67-4.91 2.51-7.37 4.33-6.46 5.38-16.78 17.11-14.52 4.31 7.79 7 16.68 14.71 22.17 12.32 23.07 27.5 27.77 47.67 14.75 6.32-0.84 9.18-6.3 13.19-10.1 10.26-9.75 14.38-9.47 24.05 2.24zM258.05 466.78c10.87-1.51 21.1-6.77 32.51-5.23 2.92 0.39 4.22-2 4.62-4.69 18-5.5 36.88-6 55.16-9.86 11.61-2.47 23.3-4.6 34.86-7.32 23.59-5.54 24.49-5.1 28.77 18.29 1 5.63 0.84 11.69 2.86 16.91 5.22 13.41-1.43 19.75-12.74 24-32.7 4.86-65.29 10.21-97.52 17.79-18.2 4.29-36.93 6.4-55.44 9.36-3.93 0.63-7.38 0-8-5.14-0.63-4.84-1.64-9.64-2.49-14.45-4-10.38 3.54-21.69-3.06-32.26-1.82-2.92 3-5.86 7.25-6.17 4.39-0.37 9 1.23 13.22-1.23z" fill="#00AEFF" p-id="11009"></path><path d="M258.05 466.78c-0.61 0.53-1.21 1.5-1.84 1.53-11.5 0.47-21.64 0.72-13.77 17.68 2.39 5.15-2.49 13.35-1.83 20.41l-2.39-2.56c-0.52-9.28 1.93-18.59-1.94-27.9-2-4.88 1.21-8.81 6.95-9.09 4.93-0.25 9.88-0.07 14.82-0.07zM255.73 494.58l-2 2.57c-0.76-0.74-1.92-1.38-2.16-2.26-0.16-0.61 0.93-1.56 1.46-2.37z" fill="#00AEFF" p-id="11010"></path></svg>