<?xml version="1.0" standalone="no"?><!DOCTYPE svg PUBLIC "-//W3C//DTD SVG 1.1//EN" "http://www.w3.org/Graphics/SVG/1.1/DTD/svg11.dtd"><svg t="1635010908199" class="icon" viewBox="0 0 1024 1024" version="1.1" xmlns="http://www.w3.org/2000/svg" p-id="7762" width="20" height="20" xmlns:xlink="http://www.w3.org/1999/xlink"><defs><style type="text/css"></style></defs><path d="M507.213265 932.78109c0 49.673664-72.613865 89.954489-162.02646 89.954489s-162.387723-40.461457-162.387722-89.954489c0-49.673664 72.613865-89.773858 162.026459-89.773858 89.773858 0 162.387723 40.100194 162.387723 89.773858z m175.031928-89.773858c-89.593226 0-162.02646 40.280826-162.02646 89.95449 0 49.673664 72.613865 89.954489 162.02646 89.954489 89.593226 0 162.02646-40.280826 162.02646-89.954489 0-49.854295-72.613865-89.954489-162.02646-89.95449z" fill="#FFC716" p-id="7763"></path><path d="M872.088905 501.252425s-12.282942-12.282942-25.288411-24.385253v-143.060151c0-118.85553-63.221027-228.679485-166.542247-288.287882-102.959958-59.608397-229.763274-59.608397-332.723232 0-102.959958 59.247134-166.542247 169.25172-166.542247 288.287882V476.867172c-13.366731 12.282942-25.469042 24.385253-25.469042 24.385253-21.495149 33.055565-73.336391 117.049215-73.336391 196.527078s21.675781 93.025225 29.804198 93.567119c8.128418 0.541895 35.584406-6.863997 68.639972-58.343976 45.157876 149.743517 177.018875 258.303052 332.903863 258.303052s288.10725-108.378903 332.723231-257.941789c33.416828 51.66061 61.595343 59.066502 69.181867 58.524607 7.586523-0.903158 29.804198-14.269889 29.804198-93.567119S893.584054 534.669254 871.908273 502.155583l0.180632-0.903158z" fill="#37464F" p-id="7764"></path><path d="M269.321573 558.331981c-2.528841 19.508203-3.793262 38.835774-3.61263 58.524607 0 181.715294 113.255953 329.471865 253.064738 329.471865s253.064738-147.214676 253.064738-329.471865c0-19.508203-1.264421-39.016405-3.973893-58.524607h-498.542953z m157.14941-404.975834c-36.487564 0-67.014288 40.82272-67.014289 91.038279s30.165461 91.038278 67.014289 91.038278c37.029458 0 67.014288-40.82272 67.014288-91.038278s-29.98483-91.038278-67.014288-91.038279z m11.199153 128.067737c-13.547363 0-24.385253-16.79873-24.385253-37.390721s11.018522-37.390721 24.385253-37.390722c13.547363 0 24.385253 16.79873 24.385253 37.390722-0.180632 20.591992-11.018522 37.390721-24.385253 37.390721z m165.819721-128.067737c-36.487564 0-67.014288 40.82272-67.014288 91.038279s30.165461 91.038278 67.014288 91.038278 67.014288-40.82272 67.014288-91.038278-29.804198-91.038278-67.014288-91.038279z m11.560416 94.470277c0 1.083789-0.903158 1.806315-1.806315 1.806315s-1.445052-0.361263-1.625683-1.445052c-2.709473-9.57347-10.657259-16.437467-20.591992-17.701887-9.754101 1.445052-17.701887 8.489681-20.050097 18.243782-0.180632 0.541895-0.903158 1.083789-1.625683 1.083789-1.083789 0-1.806315-0.903158-1.806315-1.806315v-2.890104c0-20.591992 11.018522-37.390721 24.385253-37.390722 13.547363 0 24.385253 16.79873 24.385253 37.390722v3.070735l-1.264421-0.361263z" fill="#FFFFFF" p-id="7765"></path><path d="M250.355265 540.26883c-6.141471 30.526724-18.966308 167.626036-13.005468 197.97213 6.141471 30.526724 31.791145 25.288411 68.45934 25.649673s77.310284 10.115364 77.852179-34.681249c0.541895-44.615982 0.903158-133.125419 10.83789-165.639089 10.476627-32.333039-144.143941-23.301464-144.143941-23.301465z" fill="#FF3A2F" p-id="7766"></path><path d="M242.226848 605.657435l143.240783 46.422297c0-29.623567 3.070736-59.066502 9.392838-87.967543 10.115364-32.513671-144.505204-23.843359-144.505204-23.843359-1.986947 11.018522-5.057682 36.487564-8.128417 65.388605z" fill="#DD2C00" p-id="7767"></path><path d="M514.438525 462.055389c111.810901 0 202.487917-40.82272 202.487917-65.749868 0-18.966308-90.677015-38.655142-202.307285-38.655142s-202.307285 17.701887-202.307285 38.655142c0 23.843359 90.677015 65.749868 202.307285 65.749868h-0.180632z" fill="#FFC716" p-id="7768"></path><path d="M516.606103 486.621274s128.248368 1.445052 230.666432-42.267773c102.418063-43.532193 101.514906-48.951138 112.533427-48.951137 11.018522 0 24.385253 16.076204 30.165462 45.157876 5.599577 29.081672 12.282942 52.021873-12.282943 66.291762-24.385253 14.269889-180.631505 106.391956-357.289116 106.391956h-8.850944c-176.657612 0-333.445758-92.122067-357.289116-106.391956-24.02399-13.908626-17.340624-36.487564-12.282942-66.291762 5.057682-29.623567 18.785676-45.157876 29.804198-45.157876 11.199153 0 10.115364 4.877051 112.533427 48.951137 102.598695 43.893456 230.666431 42.267772 230.666432 42.267773h1.625683z" fill="#FF3A2F" p-id="7769"></path></svg>