<?xml version="1.0" standalone="no"?><!DOCTYPE svg PUBLIC "-//W3C//DTD SVG 1.1//EN" "http://www.w3.org/Graphics/SVG/1.1/DTD/svg11.dtd"><svg t="1634876291365" class="icon" viewBox="0 0 1448 1024" version="1.1" xmlns="http://www.w3.org/2000/svg" p-id="8309" width="31.109375" height="22" xmlns:xlink="http://www.w3.org/1999/xlink"><defs><style type="text/css"></style></defs><path d="M1095.111302 457.184142c-17.945115 101.584626-96.411988 121.25338-130.477086 124.955248-24.199758 30.932617-59.209246 47.852493-99.45502 47.852493-9.679559 0-18.746728 0.541863-26.891869-0.892783C814.400645 655.242682 778.752963 670.87757 741.35928 670.87757H739.685526v209.568392c0 10.508695-0.285553 51.673055-3.211611 61.017175-12.676146 40.56573-57.955221 68.639376-105.922968 68.639376-47.262465 0-79.369977-29.038678-92.613788-68.639376-3.306222-9.85674-2.955302-57.471845-2.955302-68.642817V548.41489l-2.274103 3.490284c-19.532858 30.191211-50.897245 47.492971-86.255933 47.492971-38.105846 0.013762-74.806289-20.434243-93.563338-52.060099-17.917592-30.218734-17.000726-65.412283 2.451283-96.771509l225.999731-409.756538C590.35678 24.409622 608.067948 15.48179 627.54404 15.48179h318.202392c27.480177 0 50.33302 19.157855 52.008493 45.224029l7.388255 113.8118c78.941648 115.425346 105.026744 197.320575 89.968122 282.666523z" fill="#CE883D" p-id="8310"></path><path d="M1053.437764 451.526408c-13.670421 77.357344-71.059696 89.718694-98.037576 91.163661-8.47714 0.461013-16.362532 4.551646-21.036312 11.315468-19.524257 28.329956-45.702244 35.831743-67.940976 35.831743-15.982368 0-29.912539-3.867007-37.887381-6.65889a9.332079 9.332079 0 0 0-3.046472-0.51778c-3.165166 0-6.161752 1.615267-7.838946 4.350383-19.852815 32.334579-48.064077 40.675823-71.881952 40.675823-13.856202 0-26.251955-2.826287-34.613842-5.382502-0.873861-0.268351-5.127913-0.393926-5.988012-0.393926-4.556807 0-11.924419 3.54533-11.924419 8.188147v269.415831c0 38.016396-28.214702 64.827416-58.221852 64.827416-30.001989 0-62.192071-26.81102-62.192071-64.827416V503.856578c0-17.181347-11.084962-27.813896-25.969843-27.813896-9.055127 0-16.407257 3.925494-22.40387 12.672706l-28.080527 42.308292c-12.724311 19.943986-30.758876 28.218143-49.065233 28.218142-41.382825 0-81.695686-42.242924-52.940841-87.327617L621.05545 63.956995c1.486252-2.693831 4.525843-0.311356 7.735734-0.311356h318.204112c4.532724 0 8.308561-0.698401 8.570031 3.607257l7.980003 121.177691c0.091171 1.438086 0.588308 1.794167 1.414003 2.982825 78.986373 113.677624 101.600108 185.845128 88.478431 260.112996z" fill="#F8B360" p-id="8311"></path></svg>