<?xml version="1.0" standalone="no"?><!DOCTYPE svg PUBLIC "-//W3C//DTD SVG 1.1//EN" "http://www.w3.org/Graphics/SVG/1.1/DTD/svg11.dtd"><svg t="1635003294255" class="icon" viewBox="0 0 1024 1024" version="1.1" xmlns="http://www.w3.org/2000/svg" p-id="33308" xmlns:xlink="http://www.w3.org/1999/xlink" width="20" height="20"><defs><style type="text/css"></style></defs><path d="M763.2 675.3h-498c-25.7 0-46.8-21-46.8-46.8v-4.1c0-25.7 21-46.8 46.8-46.8h498c25.7 0 46.8 21 46.8 46.8v4.1c-0.1 25.7-21.1 46.8-46.8 46.8z" fill="#E6554C" p-id="33309"></path><path d="M761.1 577.7h-62.3c26.8 0 48.8 22 48.8 48.8 0 26.8-22 48.8-48.8 48.8h62.3c26.8 0 48.8-22 48.8-48.8 0-26.9-21.9-48.8-48.8-48.8z" fill="#AD3C3A" p-id="33310"></path><path d="M763.2 536.3h-498c-25.7 0-46.8-21-46.8-46.8v-4.1c0-25.7 21-46.8 46.8-46.8h498c25.7 0 46.8 21 46.8 46.8v4.1c-0.1 25.7-21.1 46.8-46.8 46.8z" fill="#B5591C" p-id="33311"></path><path d="M721.1 783.2H307.3c-48.9 0-88.8-40-88.8-88.8v-10c0-5 4.1-9.1 9.1-9.1h573.3c5 0 9.1 4.1 9.1 9.1v10c-0.1 48.8-40.1 88.8-88.9 88.8z" fill="#FFBF31" p-id="33312"></path><path d="M725.6 675.3s4.7 96.6-74.4 96.6c0 0 52.2 11.3 82.3 11.3 55.4 0 76.4-51.5 76.4-98.4 0-31.7-84.3-9.5-84.3-9.5z" fill="#CC911B" p-id="33313"></path><path d="M763.2 688.9h-498c-33.3 0-60.4-27.1-60.4-60.4v-4.1c0-33.3 27.1-60.4 60.4-60.4h498c33.3 0 60.4 27.1 60.4 60.4v4.1c0 33.3-27.1 60.4-60.4 60.4z m-498-97.6c-18.3 0-33.1 14.9-33.1 33.1v4.1c0 18.3 14.9 33.1 33.1 33.1h498c18.3 0 33.1-14.9 33.1-33.1v-4.1c0-18.3-14.9-33.1-33.1-33.1h-498z" fill="#592900" p-id="33314"></path><path d="M721.1 796.8H307.3c-56.5 0-102.5-46-102.5-102.5v-10c0-12.5 10.2-22.7 22.7-22.7h573.3c12.5 0 22.7 10.2 22.7 22.7v10c0.1 56.5-45.9 102.5-102.4 102.5z m-489-107.9v5.4c0 41.5 33.7 75.2 75.2 75.2h413.8c41.5 0 75.2-33.7 75.2-75.2v-5.4H232.1z" fill="#592900" p-id="33315"></path><path d="M761.1 438.6h-62.3c26.8 0 48.8 22 48.8 48.8 0 26.8-22 48.8-48.8 48.8h62.3c26.8 0 48.8-22 48.8-48.8 0-26.8-21.9-48.8-48.8-48.8z" fill="#8C4A26" p-id="33316"></path><path d="M805.6 438.6H222.7c-4.7 0-8.6-3-8.6-6.7 0-105.1 101.4-191.2 300.1-191.2s300.1 86 300.1 191.2c-0.1 3.7-3.9 6.7-8.7 6.7z" fill="#FFBF31" p-id="33317"></path><path d="M559.4 242.3S735.1 308.1 735.1 438.7h79.1s1.3-98.7-66.7-135.3-83.7-47.8-188.1-61.1z" fill="#CC911B" p-id="33318"></path><path d="M805.6 452.3H222.7c-12.3 0-22.3-9.1-22.3-20.4 0-94.5 82.2-204.8 313.7-204.8s313.7 110.3 313.7 204.8c0.1 11.2-9.9 20.4-22.2 20.4z m-577.7-27.3h572.5c-4.7-103.9-116-170.6-286.3-170.6-170.2 0-281.5 66.7-286.2 170.6z" fill="#592900" p-id="33319"></path><path d="M763.2 549.9h-498c-33.3 0-60.4-27.1-60.4-60.4v-4.1c0-33.3 27.1-60.4 60.4-60.4h498c33.3 0 60.4 27.1 60.4 60.4v4.1c0 33.3-27.1 60.4-60.4 60.4z m-498-97.6c-18.3 0-33.1 14.9-33.1 33.1v4.1c0 18.3 14.9 33.1 33.1 33.1h498c18.3 0 33.1-14.9 33.1-33.1v-4.1c0-18.3-14.9-33.1-33.1-33.1h-498z" fill="#592900" p-id="33320"></path><path d="M250.8 524.5s-65.5-6.1-74.8 5.2c-15.5 19-11.2 49.1 20.9 49.1 41.2 0 68.1-17.4 76-7.9s-7.9 48.8 53.8 33.2c61.7-15.6 60.1-44.6 98.1-30.1s31.9 55.4 84.8 42.7c52.9-12.7 48.2-50.6 97.2-52.2s44 25.5 102.1 44.3c29.1 9.4 45.2-15.5 68.4-17.5s32.5 22.6 55.8 12.7c4.7-2 6.5-13.8 5.1-21.6-2-11.9-1-22.4 10.1-27.3 5.6-2.4 10.1-6.8 10.1-14.5 0-20.6-48.6-33.2-48.6-33.2s-97 30.1-119.2 30.1-83.9-21.4-134.5-13.1-148.8 10.4-180.4 5.2-124.9-5.1-124.9-5.1z" fill="#3CAA49" p-id="33321"></path><path d="M490.6 601.5c-9.5 0-13.7-20.6-22.7-31.4-8.4-10-18.8-22.3-38.2-29.7-7.3-2.8-14-4.4-20.3-5 7.3 0.2 14.4 0.2 20.7 0.2 35.5 0 90.2-2.2 127.2-8.3 6.8-1.1 14.3-1.7 22.3-1.7 25 0 51.3 5.3 72.5 9.5 15.3 3.1 27.5 5.5 36.6 5.5 21.9 0 94.6-21.7 119.3-29.3 10.8 3.4 21.5 8.4 26.8 12.5-8.2 4.7-14.6 11.6-18.6 19.7-4.9 10.1-16.3 15.3-27.4 13.6-3.5-0.5-6.9-0.8-10.4-0.8-1.6 0-3.2 0.1-4.8 0.2-13 1.1-23.5 6.7-32.7 11.7-7.8 4.2-14.6 7.8-21.3 7.8-2.3 0-4.6-0.4-7-1.2-22.9-7.4-34.1-15.8-44.9-23.9-14-10.5-28.4-21.4-59.1-21.4-1.5 0-3 0-4.6 0.1-33 1.1-48 15.8-61.3 28.8-10.5 10.2-18.6 36.3-38.8 41.2-5 1.3-9.5 1.9-13.3 1.9z m-197.8-37.8c-0.8-6.4-1.8-14.3-7.3-21-3.7-4.4-10.5-9.7-22.2-9.7-7.1 0-14.7 1.9-23.6 4.1-12.1 3-27.1 6.7-44.7 6.7-3.1 0-8.5-0.5-10-3.5-1.3-2.7-0.7-7.8 2.2-12.4 2.8-0.7 10-2 25.5-2 17.2 0 34.1 1.6 34.3 1.6l0.9 0.1h0.9c0.9 0 92.2 0.1 122 4.9 8.8 1.4 20.6 2.2 32.6 2.7-14.6 0.4-25.2 7.1-35.4 13.5-10.6 6.7-34.8 31.4-58.5 39.1-26.3 8.6-16.3-21.3-16.7-24.1z" fill="#74C64E" p-id="33322"></path><path d="M491.8 628.2c-23.2 0-33.9-12.7-43.5-24.1-7.2-8.6-14.1-16.8-26.7-21.6-17.1-6.5-22.8-2.9-36.7 5.9-11.6 7.3-27.5 17.4-56 24.5-22.9 5.8-38.3 5.2-48.6-1.9-10.9-7.4-12.4-19.8-13.4-27.9-0.2-1.9-0.6-4.6-1-6-3.1-0.3-11.1 1.7-17.6 3.3-12.8 3.2-30.4 7.5-51.5 7.5-18.4 0-33.1-9.7-38.4-25.2-5-14.6-0.2-30.7 11.9-40.1 21.2-16.4 72.1-8.6 81.1-7.1 9.8 0 94.9 0.3 125.7 5.3 30.3 4.9 127.2 3.1 177.5-5.2 35.6-5.9 75.7 2.2 104.9 8 13.3 2.7 24.7 5 31.1 5 15.2 0 78-17.7 116.5-29.7 1.6-0.5 3.3-0.5 5-0.1 9.3 2.4 55.4 15.8 55.4 42 0 10.4-5.5 18.5-15.5 22.8l-2.3 1c-10.9 4.6-10.7 5.3-10.2 8.7 0.2 1.1 1.3 3.6 2.2 5.7 3.3 7.5 10.3 23-3.4 32.6-12.6 8.8-25.7 2-36.2-3.5-7.8-4.1-15.8-8.3-24-7.6-7.2 0.6-14.3 4.4-21.8 8.4-12.9 6.9-28.9 15.5-50.2 8.6-27.4-8.9-41.6-19.6-53.1-28.2-13.2-9.9-21.9-16.5-45.9-15.7-22 0.7-30.7 9.1-42.6 20.8-11.7 11.5-25 24.5-52.8 31.2-7.5 1.8-14.1 2.6-19.9 2.6z m-85.1-67.3c6.1 0 13 1.3 21.5 4.5 17 6.5 26.5 17.8 34.1 26.9 11.5 13.7 18.5 22 45.3 15.5 22.9-5.5 33.8-16.1 44.3-26.5 12.6-12.3 25.6-25.1 54.7-26 30.5-0.9 42.9 8.4 57.4 19.3 10.9 8.2 23.3 17.5 47.8 25.4 13.9 4.5 24.2-1 36-7.3 8.8-4.7 17.9-9.6 28.9-10.5 13.4-1.1 24.8 4.8 34 9.6 9.6 5 14.1 7 17.4 4.7 0.3-0.2 0.4-0.4 0.4-0.4 0.5-1.6-2-7.2-3.2-9.9-1.5-3.4-3-6.7-3.5-10-3.1-18.2 10.8-24.1 21-28.4l2.2-1c4.2-1.8 4.6-4 4.6-6.1 0-7.6-20.3-18.3-39.4-23.8-17.7 5.4-97.8 29.7-119.3 29.7-8.2 0-19.9-2.3-34.7-5.3-27.9-5.6-66-13.2-98.4-7.9-53.2 8.8-151.5 10.4-183.4 5.2-30.6-5-122.6-5.1-123.6-5.1-0.5 0-1.1 0-1.6-0.1-19.9-3.5-55.8-5.7-67.6 3.4-6.1 4.7-8.4 12.5-5.9 19.9 2.8 8.2 10.5 12.9 21.2 12.9 18.9 0 34.5-3.9 47.1-7 15.7-3.9 28.1-6.9 35.8 2.3 3.7 4.4 4.4 10.2 5.1 15.8 0.9 7.5 1.8 12.5 5.6 15.1 3.1 2.1 11.7 4.9 33.9-0.7 25.6-6.5 39.5-15.2 50.7-22.3 10.3-6.3 19.1-11.9 31.6-11.9z" fill="#592900" p-id="33323"></path><path d="M445.4 443.8s116.3 22.1 168.6 97.6l95-97.6H445.4z" fill="#FFF255" p-id="33324"></path><path d="M614 550.5h-0.8c-2.7-0.2-5.2-1.7-6.7-3.9-49.5-71.6-161.7-93.6-162.8-93.9-4.6-0.9-7.8-5.1-7.4-9.8 0.4-4.7 4.4-8.2 9.1-8.2h263.5c3.7 0 7 2.2 8.4 5.6s0.7 7.3-1.9 9.9l-95 97.6c-1.6 1.8-3.9 2.7-6.4 2.7z m-107.7-97.6c2.4 1 4.9 2 7.4 3 31.1 13.1 72.9 35.8 101.3 71.5l72.5-74.5H506.3z" fill="#592900" p-id="33325"></path><path d="M312.5 443.3s23.7 29.7 0 60.1c-13.5 17.2 21.4 40.4 38 19s-11.9-29.9 0-44.6 49.9-34.5 49.9-34.5h-87.9z" fill="#FFF255" p-id="33326"></path><path d="M333.3 540.1c-1.5 0-3.1-0.1-4.6-0.3-11.9-1.7-22.6-9.5-26.6-19.4-3.1-7.7-1.9-15.9 3.3-22.5 19.1-24.4 0.8-47.8 0-48.8-2.2-2.7-2.6-6.5-1.1-9.6s4.7-5.2 8.2-5.2h87.8c4.2 0 7.8 2.9 8.8 6.9 1 4.1-0.9 8.3-4.6 10.2-10.1 5.2-38.2 21.2-47 32.1-1.4 1.7-1.6 2 1.7 8 4.1 7.5 11.1 20.1-1.6 36.5-6 7.8-14.7 12.1-24.3 12.1z m-5.4-87.7c5.8 15 7.6 36.4-8.2 56.6-1.2 1.5-1.4 2.8-0.7 4.5 1.4 3.4 6.3 7.4 12.2 8.2 4.9 0.7 9-1 12.1-4.9 5.4-6.9 3.7-9.9 0.1-16.5-3.4-6.3-9.2-16.7 0-28.2 5.2-6.5 14.4-13.5 23.6-19.7h-39.1zM491.2 304.1h-19.5c-5.6 0-10.2-4.6-10.2-10.2v-0.9c0-5.6 4.6-10.2 10.2-10.2h19.5c5.6 0 10.2 4.6 10.2 10.2v0.9c0 5.6-4.6 10.2-10.2 10.2zM541.9 340.5h-19.5c-5.6 0-10.2-4.6-10.2-10.2v-0.9c0-5.6 4.6-10.2 10.2-10.2h19.5c5.6 0 10.2 4.6 10.2 10.2v0.9c0 5.6-4.6 10.2-10.2 10.2zM634.3 387.7h-24.9c-7.2 0-13.1-5.9-13.1-13.1v-1.2c0-7.2 5.9-13.1 13.1-13.1h24.9c7.2 0 13.1 5.9 13.1 13.1v1.2c0 7.3-5.9 13.1-13.1 13.1zM388.5 363.6h-8.8c-5.6 0-10.2-4.6-10.2-10.2v-0.9c0-5.6 4.6-10.2 10.2-10.2h8.8c5.6 0 10.2 4.6 10.2 10.2v0.9c0 5.6-4.6 10.2-10.2 10.2zM353.6 340.5h-8.8c-5.6 0-10.2-4.6-10.2-10.2v-0.9c0-5.6 4.6-10.2 10.2-10.2h8.8c5.6 0 10.2 4.6 10.2 10.2v0.9c0 5.6-4.6 10.2-10.2 10.2z" fill="#592900" p-id="33327"></path><path d="M676.6 319.1h-8.8c-5.6 0-10.2-4.6-10.2-10.2v-0.9c0-5.6 4.6-10.2 10.2-10.2h8.8c5.6 0 10.2 4.6 10.2 10.2v0.9c0 5.6-4.6 10.2-10.2 10.2z" fill="#592900" p-id="33328"></path><path d="M495.2 395.2l-7.9-4c-5-2.6-7-8.8-4.4-13.8l0.4-0.8c2.6-5 8.8-7 13.8-4.4l7.9 4c5 2.6 7 8.8 4.4 13.8l-0.4 0.8c-2.6 4.9-8.8 6.9-13.8 4.4z" fill="#592900" p-id="33329"></path></svg>