<?xml version="1.0" standalone="no"?><!DOCTYPE svg PUBLIC "-//W3C//DTD SVG 1.1//EN" "http://www.w3.org/Graphics/SVG/1.1/DTD/svg11.dtd"><svg t="1635003392580" class="icon" viewBox="0 0 1024 1024" version="1.1" xmlns="http://www.w3.org/2000/svg" p-id="40537" xmlns:xlink="http://www.w3.org/1999/xlink" width="20" height="20"><defs><style type="text/css"></style></defs><path d="M684.032 295.936c-38.912-34.304 33.28-93.696 33.28-93.696 57.344-62.976 47.104-107.52 10.24-138.24-41.472 85.504-80.896 135.168-108.544 162.816h-0.512c-1.024 3.072-4.096 5.12-7.68 5.12-4.608 0-8.192-3.584-8.192-8.192 0-1.536 0.512-2.56 1.024-3.584 31.232-57.856 63.488-136.192 81.408-181.248-46.08-20.992-104.448-31.744-143.36-36.352-39.424-2.56-24.064-1.536-58.88 0-93.184 9.728-307.712 53.76-179.2 199.168 0 0 72.704 59.392 33.28 93.696 0 0-287.744 233.984-221.184 474.624 0 0 21.504 251.392 393.216 253.44h17.92c354.816-2.56 381.44-253.44 381.44-253.44 66.048-240.64-224.256-474.112-224.256-474.112z m-64 393.728c10.752 0 19.456 8.704 19.456 19.456 0 10.752-8.704 19.456-19.456 19.456h-98.816v118.784c0 10.752-8.704 19.456-19.456 19.456-10.752 0-19.456-8.704-19.456-19.456v-118.784H384c-10.752 0-19.456-8.704-19.456-19.456 0-10.752 8.704-19.456 19.456-19.456h98.304v-39.936H384c-10.752 0-19.456-9.216-19.456-19.456 0-10.24 9.216-19.456 19.456-19.456h98.304v-20.992L389.12 507.392c-7.168-7.68-7.168-19.968 0-27.648 7.168-7.68 18.432-7.68 25.6 0l87.552 72.192L588.8 478.72c7.168-7.68 18.944-7.68 26.112 0 7.168 7.68 7.168 19.968 0 27.648L520.192 588.8l1.536 22.528h98.304c10.752 0 19.456 8.704 19.456 19.456s-8.704 19.456-19.456 19.456h-98.304v39.936l98.304-0.512z" fill="#f39509" p-id="40538"></path></svg>