<?xml version="1.0" standalone="no"?><!DOCTYPE svg PUBLIC "-//W3C//DTD SVG 1.1//EN" "http://www.w3.org/Graphics/SVG/1.1/DTD/svg11.dtd"><svg t="1635003436828" class="icon" viewBox="0 0 1024 1024" version="1.1" xmlns="http://www.w3.org/2000/svg" p-id="46125" xmlns:xlink="http://www.w3.org/1999/xlink" width="20" height="20"><defs><style type="text/css"></style></defs><path d="M512 0c282.76736 0 512 229.23264 512 512S794.76736 1024 512 1024 0 794.76736 0 512 229.23264 0 512 0z m-125.58336 540.50816h-23.1424l25.8048 80.2816c3.8912 12.06272 5.8368 20.0704 5.8368 24.00256 0 5.67296-2.49856 10.81344-7.49568 15.40096-4.17792 3.72736-9.64608 5.65248-16.46592 5.65248-3.70688 0-7.02464-0.24576-9.8304-0.67584v12.57472c5.75488 2.33472 10.52672 3.50208 14.41792 3.50208 14.56128 0 27.99616-9.07264 40.26368-27.27936 15.6672-23.59296 28.32384-61.44 37.94944-113.4592h-22.38464c-3.9936 31.9488-11.0592 61.5424-21.23776 88.59648 0.7168-5.40672-1.04448-14.92992-5.2224-28.5696l-18.49344-60.02688z m238.71488-39.0144c-17.92 0-31.90784 5.89824-41.984 17.7152-10.93632 12.92288-16.42496 31.9488-16.42496 57.11872 0 24.71936 4.83328 42.88512 14.60224 54.43584 8.9088 10.4448 22.3232 15.64672 40.26368 15.64672 6.71744 0 12.86144-0.83968 18.432-2.49856l33.71008 19.64032 9.15456-15.83104h-0.06144l-25.84576-12.6976 2.2528-2.00704a49.3568 49.3568 0 0 0 4.21888-4.36224c11.01824-12.88192 16.4864-32.01024 16.4864-57.32352 0-46.55104-18.26816-69.8368-54.80448-69.8368z m-111.88224 0.26624c-12.6976 0-23.01952 3.4816-31.0272 10.56768-7.96672 6.98368-11.96032 16.15872-11.96032 27.58656 0 13.76256 5.3248 22.13888 16.0768 29.94176l0.24576 0.14336 1.88416 1.08544 11.0592 6.28736 6.9632 3.93216c3.4816 1.96608 6.79936 3.82976 9.4208 5.26336 10.6496 5.98016 16.4864 13.1072 16.4864 21.504a19.16928 19.16928 0 0 1-7.61856 15.64672c-4.83328 3.72736-11.4688 5.59104-19.92704 5.59104-9.07264 0-19.12832-2.74432-30.26944-8.33536l-6.02112 12.0832c12.94336 8.74496 26.2144 13.1072 40.01792 13.1072 14.76608 0 26.43968-3.80928 35.20512-11.42784 8.74496-7.63904 13.1072-17.44896 13.1072-29.40928 0.16384-13.6192-5.3248-21.87264-16.32256-29.63456 0 0-20.19328-11.5712-30.18752-17.03936-10.99776-6.10304-16.93696-13.29152-16.93696-21.62688a17.408 17.408 0 0 1 6.30784-13.33248c3.85024-3.50208 9.4208-5.24288 16.62976-5.24288 9.3184 0.12288 18.5344 2.10944 27.05408 5.85728l5.4272-12.10368a63.85664 63.85664 0 0 0-35.61472-10.4448z m209.63328 1.86368h-22.528v140.67712h66.90816v-17.3056h-44.38016v-123.37152z m-478.4128 0H215.2448A1441.8944 1441.8944 0 0 0 204.8 644.3008h21.504a1854.2592 1854.2592 0 0 1 4.95616-112.18944h0.24576l35.61472 112.18944h17.94048l35.86048-112.18944h0.2048c3.91168 37.2736 6.20544 74.71104 6.8608 112.18944h23.6544c-1.10592-42.496-4.7104-89.41568-10.87488-140.67712h-27.8528l-34.26304 103.38304h-0.2048l-33.95584-103.38304z m378.34752 15.19616c11.264 0 19.57888 4.23936 24.84224 12.6976 5.69344 9.216 8.54016 23.81824 8.54016 43.8272 0 35.71712-10.77248 53.63712-32.29696 53.63712-11.32544 0-19.57888-4.25984-24.82176-12.84096l-1.49504-2.6624c-4.7104-9.216-7.08608-23.10144-7.08608-41.51296 0-35.4304 10.79296-53.1456 32.31744-53.1456z m-14.6432-241.5616c-9.66656-6.10304-34.69312-19.33312-41.79968-1.8432-4.58752 11.0592 6.77888 21.93408 10.73152 27.5456 2.90816 3.8912 6.61504 8.33536 8.64256 12.6976 1.18784 2.9696 1.51552 5.98016 2.72384 9.07264 2.70336 7.4752 5.26336 15.81056 8.8064 22.81472 1.88416 3.56352 3.8912 7.29088 6.30784 10.50624 1.37216 1.8432 3.70688 2.72384 4.23936 5.77536-2.39616 3.46112-2.53952 8.4992-3.91168 12.6976-6.10304 19.27168-3.72736 43.08992 4.9152 57.2416 2.74432 4.23936 9.216 13.59872 17.89952 10.01472 7.63904-3.072 5.9392-12.73856 8.13056-21.25824 0.512-2.02752 0.18432-3.3792 1.2288-4.75136v0.38912l3.56352 7.04512 3.39968 7.0656c5.24288 8.33536 14.39744 16.9984 22.05696 22.77376 4.07552 3.05152 7.31136 8.33536 12.3904 10.21952v-0.512h-0.38912l-1.18784-1.26976c-0.86016-0.73728-1.80224-1.31072-2.72384-2.10944a87.63392 87.63392 0 0 1-8.9088-10.17856 222.8224 222.8224 0 0 1-18.98496-30.98624c-2.80576-5.3248-5.14048-11.07968-7.3728-16.34304-1.024-2.048-1.024-5.09952-2.74432-6.10304-2.53952 3.70688-6.26688 6.94272-8.13056 11.50976-3.23584 7.33184-3.56352 16.34304-4.77184 25.7024-0.69632 0.16384-0.36864 0-0.69632 0.34816-5.44768-1.31072-7.29088-6.9632-9.33888-11.69408-5.07904-12.0832-5.9392-31.49824-1.51552-45.40416 1.18784-3.56352 6.26688-14.80704 4.23936-18.2272-1.06496-3.21536-4.42368-5.07904-6.28736-7.70048a63.05792 63.05792 0 0 1-6.10304-10.8544c-4.07552-9.5232-6.10304-20.04992-10.52672-29.57312-2.048-4.38272-5.59104-9.0112-8.4992-13.04576-3.23584-4.56704-6.77888-7.80288-9.35936-13.23008-0.8192-1.8432-2.048-4.9152-0.67584-6.9632 0.34816-1.37216 1.06496-1.90464 2.37568-2.29376 2.2528-1.8432 8.51968 0.57344 10.73152 1.57696 6.28736 2.56 11.59168 4.93568 16.85504 8.4992 2.37568 1.67936 4.95616 4.9152 7.9872 5.7344h3.584l4.17792 0.6144c4.25984 0.32768 8.66304 0.14336 12.4928 1.26976 9.0112 2.88768 17.16224 7.10656 24.45312 11.6736a151.42912 151.42912 0 0 1 53.0432 58.1632c2.048 3.91168 2.92864 7.51616 4.77184 11.5712 3.56352 8.3968 7.9872 16.87552 11.59168 24.9856 3.54304 8.00768 6.98368 16.1792 12.0832 22.81472 2.56 3.56352 12.77952 5.4272 17.36704 7.2704 3.3792 1.536 8.64256 2.92864 11.69408 4.79232 5.85728 3.56352 11.55072 7.63904 17.03936 11.55072 2.80576 1.92512 11.264 6.18496 11.776 9.6256-13.59872-0.36864-24.1664 1.00352-32.9728 4.77184l-1.18784 0.38912-2.51904 0.69632c-1.6384 0.512-3.072 1.31072-3.2768 3.15392 1.39264 1.35168 1.59744 3.56352 2.80576 5.44768 2.048 3.39968 5.5296 7.96672 8.8064 10.36288 3.54304 2.78528 7.10656 5.48864 10.8544 7.8848 6.61504 4.05504 14.1312 6.47168 20.60288 10.56768 3.6864 2.39616 7.45472 5.4272 11.18208 7.96672 1.86368 1.26976 3.072 3.56352 5.44768 4.38272v-0.512l-0.96256-1.72032c-0.53248-1.2288-0.94208-2.60096-1.69984-3.72736-1.69984-1.69984-3.42016-3.23584-5.09952-4.9152a81.98144 81.98144 0 0 0-17.67424-17.16224c-5.44768-3.70688-17.34656-8.9088-19.57888-15.1552l-0.32768-0.32768 2.88768-0.4096c2.9696-0.59392 6.144-1.536 8.8064-2.29376 5.77536-1.536 11.0592-1.20832 17.03936-2.70336 2.70336-0.67584 5.4272-1.51552 8.15104-2.39616v-1.51552l-2.8672-3.33824c-1.82272-2.33472-3.54304-4.8128-5.632-6.71744-8.8064-7.68-18.20672-14.68416-28.07808-20.93056-5.34528-3.39968-12.12416-5.59104-17.73568-8.4992-2.048-1.024-5.44768-1.51552-6.61504-3.21536-3.072-3.72736-4.83328-8.66304-7.00416-13.08672-4.99712-9.68704-9.6256-19.5584-13.9264-29.57312-3.03104-6.67648-4.89472-13.312-8.62208-19.41504-17.55136-28.91776-36.5568-46.44864-65.78176-63.5904-6.28736-3.56352-13.824-5.09952-21.77024-6.9632-4.25984-0.2048-8.4992-0.512-12.73856-0.69632-2.78528-1.18784-5.48864-4.42368-7.8848-5.98016z m13.96736 31.35488l-0.04096 0.06144-2.048 0.06144c-1.88416 0.12288-3.3792 0.4096-4.9152 0.77824v0.32768h0.34816l1.6384 2.4576c1.2288 1.536 2.6624 2.90816 3.80928 4.5056 1.37216 2.70336 2.53952 5.4272 3.91168 8.13056l0.34816-0.38912 1.29024-1.1264c1.536-1.67936 2.27328-4.07552 2.27328-7.35232-1.024-1.18784-1.16736-2.37568-2.048-3.54304-1.00352-1.72032-3.19488-2.56-4.56704-3.8912z" fill="#93C4FF" p-id="46126"></path></svg>