<?xml version="1.0" standalone="no"?><!DOCTYPE svg PUBLIC "-//W3C//DTD SVG 1.1//EN" "http://www.w3.org/Graphics/SVG/1.1/DTD/svg11.dtd"><svg t="1635003337252" class="icon" viewBox="0 0 1024 1024" version="1.1" xmlns="http://www.w3.org/2000/svg" p-id="36842" xmlns:xlink="http://www.w3.org/1999/xlink" width="20" height="20"><defs><style type="text/css"></style></defs><path d="M 202.031 467.176 q 66.4607 -7.70559 172.412 -30.8223 q -27.9327 -4.81599 -81.8718 -14.448 t -70.3135 -12.5216 q -54.9023 -7.70559 -91.0222 -41.8991 T 95.1158 282.242 q 0 -52.0127 37.5647 -89.5774 t 89.5774 -37.5647 l 10.5952 0 l 0 -10.5952 q 0 -52.0127 37.0831 -89.5774 T 359.995 17.362 q 50.0863 0 84.7614 36.6015 t 42.3807 90.5406 q 3.85279 30.8223 28.8959 162.78 q 23.1168 -118.473 28.8959 -162.78 q 5.77919 -53.9391 40.9359 -90.5406 T 672.071 17.362 q 52.9759 0 90.059 37.5647 T 799.214 144.504 l 0 10.5952 l 10.5952 0 q 52.0127 0 89.5774 37.5647 t 37.5647 89.5774 q 0 51.0495 -36.1199 85.243 T 809.809 409.384 q -64.5343 9.63198 -152.185 26.9695 q 33.7119 6.74239 94.875 17.3376 T 830.036 467.176 q 54.9023 6.74239 91.5038 41.8991 T 958.141 594.318 q 0 52.9759 -37.5647 90.5406 t -90.5406 37.5647 l -9.63198 0 l 0 9.63198 q 0 52.9759 -37.5647 90.5406 t -90.5406 37.5647 q -50.0863 0 -84.2798 -36.6015 t -42.8623 -91.5038 q -0.963198 -14.448 -18.3008 -104.025 L 546.856 728.202 q 0 132.921 -73.2031 204.198 t -204.198 71.2767 q -12.5216 0 -21.672 -9.15038 T 238.632 972.855 t 9.15038 -21.672 T 269.455 942.032 q 215.756 0 215.756 -215.756 l 0 -101.136 q -4.81599 24.08 -10.5952 60.1999 t -7.70559 44.7887 q -8.66878 54.9023 -42.8623 91.5038 T 339.768 858.234 q -52.9759 0 -90.5406 -37.5647 t -37.5647 -90.5406 l 0 -9.63198 l -9.63198 0 q -52.9759 0 -90.5406 -37.5647 t -37.5647 -90.5406 q 0 -50.0863 36.6015 -84.2798 T 202.031 467.176 Z" fill="#1afa29" p-id="36843"></path></svg>