<?xml version="1.0" standalone="no"?><!DOCTYPE svg PUBLIC "-//W3C//DTD SVG 1.1//EN" "http://www.w3.org/Graphics/SVG/1.1/DTD/svg11.dtd"><svg t="1634986903164" class="icon" viewBox="0 0 1024 1024" version="1.1" xmlns="http://www.w3.org/2000/svg" p-id="13289" xmlns:xlink="http://www.w3.org/1999/xlink" width="20" height="20"><defs><style type="text/css"></style></defs><path d="M235.52 174.08h552.96v675.84H235.52z" fill="#EB6456" p-id="13290"></path><path d="M798.72 860.16H225.28V163.84h573.44z m-552.96-20.48h532.48V184.32H245.76z" fill="#5F3104" p-id="13291"></path><path d="M235.52 174.08h71.68v675.84h-71.68z" fill="#FCB94A" p-id="13292"></path><path d="M317.44 860.16h-92.16V163.84h92.16z m-71.68-20.48h51.2V184.32h-51.2z" fill="#5F3104" p-id="13293"></path><path d="M378.88 358.4h337.92v122.88H378.88z" fill="#FFFFFF" p-id="13294"></path><path d="M727.04 491.52H368.64V348.16h358.4z m-337.92-20.48h317.44V368.64H389.12z" fill="#5F3104" p-id="13295"></path><path d="M389.12 450.56h317.44v20.48H389.12z" fill="#B2B2B2" p-id="13296"></path><path d="M573.44 435.2H419.84a10.24 10.24 0 0 1 0-20.48h153.6a10.24 10.24 0 0 1 0 20.48zM665.6 435.2h-30.72a10.24 10.24 0 0 1 0-20.48h30.72a10.24 10.24 0 0 1 0 20.48zM282.3168 343.04H209.92a10.24 10.24 0 0 1 0-20.48h72.3968a10.24 10.24 0 0 1 0 20.48zM282.3168 445.44H209.92a10.24 10.24 0 0 1 0-20.48h72.3968a10.24 10.24 0 0 1 0 20.48zM282.3168 537.6H209.92a10.24 10.24 0 0 1 0-20.48h72.3968a10.24 10.24 0 0 1 0 20.48zM282.3168 640H209.92a10.24 10.24 0 0 1 0-20.48h72.3968a10.24 10.24 0 0 1 0 20.48zM282.3168 742.4H209.92a10.24 10.24 0 0 1 0-20.48h72.3968a10.24 10.24 0 0 1 0 20.48z" fill="#5F3104" p-id="13297"></path></svg>