<?xml version="1.0" standalone="no"?><!DOCTYPE svg PUBLIC "-//W3C//DTD SVG 1.1//EN" "http://www.w3.org/Graphics/SVG/1.1/DTD/svg11.dtd"><svg t="1634986882187" class="icon" viewBox="0 0 1024 1024" version="1.1" xmlns="http://www.w3.org/2000/svg" p-id="11498" xmlns:xlink="http://www.w3.org/1999/xlink" width="20" height="20"><defs><style type="text/css"></style></defs><path d="M59.999883 192.005625h903.998234V152.001703c0-21.999957-17.999965-39.999922-39.999922-39.999922H99.999805c-21.999957 0-39.999922 17.999965-39.999922 39.999922v40.003922z" fill="#CDD3E0" p-id="11499"></path><path d="M59.999883 192.005625h903.998234v539.990945H59.999883z" fill="#99EBFB" p-id="11500"></path><path d="M963.998117 731.99657H59.999883V811.998414h331.999351c0 10.999979 8.997982 19.999961 19.999961 19.999961h199.99961c10.999979 0 19.999961-8.999982 19.999961-19.999961h331.999351v-80.001844z" fill="#CDD3E0" p-id="11501"></path><path d="M611.998805 831.998375H411.999195c-10.999979 0-19.999961-8.999982-19.999961-19.999961H19.999961v59.999883c0 21.999957 17.999965 39.999922 39.999922 39.999922h904.002234c21.999957 0 39.999922-17.999965 39.999922-39.999922v-59.999883H631.998766c0 11.001979-8.997982 19.999961-19.999961 19.999961z" fill="#8690AF" p-id="11502"></path><path d="M140.003727 272.007469h743.992546v159.993687H140.003727z" fill="#CFCDF5" p-id="11503"></path><path d="M1004.000039 791.998453H983.998078V152.001703c0-33.083935-26.915947-59.999883-59.999883-59.999883H320.003375c-11.043978 0-19.999961 8.953983-19.999961 19.999961s8.955983 19.999961 19.999961 19.999961H923.998195c11.027978 0 19.999961 8.971982 19.999961 19.999961v20.001961H79.999844V152.001703c0-11.027978 8.971982-19.999961 19.999961-19.999961h40.003922c11.043978 0 19.999961-8.953983 19.99996-19.999961s-8.955983-19.999961-19.99996-19.999961H99.999805c-33.083935 0-59.999883 26.915947-59.999883 59.999883V791.998453H19.999961c-11.043978 0-19.999961 8.953983-19.999961 19.999961v59.999883c0 33.083935 26.913947 59.999883 59.997883 59.999883h904.002234c33.083935 0 59.999883-26.915947 59.999883-59.999883v-59.999883c0-11.045978-8.955983-19.999961-19.999961-19.999961zM79.999844 751.996531h623.996781c11.045978 0 19.999961-8.953983 19.999961-19.999961s-8.953983-19.999961-19.999961-19.999961H79.999844V212.005586h863.998312v499.991023h-60.001883c-11.043978 0-19.999961 8.953983-19.99996 19.999961s8.955983 19.999961 19.99996 19.999961H943.998156V791.998453H631.998766c-11.043978 0-19.999961 8.953983-19.999961 19.999961H411.999195c0-11.045978-8.953983-19.999961-19.999961-19.999961H79.999844v-40.001922zM984.000078 871.998297c0 11.027978-8.971982 19.999961-19.999961 19.999961H59.997883C48.969904 891.998258 39.999922 883.026275 39.999922 871.998297v-39.999922h337.367341c6.927986 11.947977 19.857961 19.999961 34.631932 19.999961h199.99961c14.775971 0 27.705946-8.051984 34.631932-19.999961h337.369341v39.999922z" p-id="11504"></path><path d="M140.003727 452.001117h743.992546c11.045978 0 19.999961-8.953983 19.999961-19.999961v-159.993687c0-11.045978-8.953983-19.999961-19.999961-19.999961H140.003727c-11.043978 0-19.999961 8.953983-19.999961 19.999961v159.993687c0 11.045978 8.953983 19.999961 19.999961 19.999961z m723.992586-44.757912l-256.867499-55.237893 256.867499-55.237892v110.475785z m-168.129672 4.75799H328.133359L511.999 372.461273l183.867641 39.539922zM511.999 331.547352l-183.865641-39.539922h367.733282L511.999 331.547352z m-95.127814 20.45796L160.003687 407.243205v-110.477785l256.867499 55.239892zM140.003727 571.996883h743.992546c11.045978 0 19.999961-8.953983 19.999961-19.999961s-8.953983-19.999961-19.999961-19.999961H140.003727c-11.043978 0-19.999961 8.953983-19.999961 19.999961s8.953983 19.999961 19.999961 19.999961zM903.996234 631.996766c0-11.045978-8.953983-19.999961-19.999961-19.999961H140.003727c-11.043978 0-19.999961 8.953983-19.999961 19.999961s8.955983 19.999961 19.999961 19.999961h743.992546c11.045978 0 19.999961-8.953983 19.999961-19.999961zM794.004449 711.996609h-0.016c-11.043978 0-19.991961 8.953983-19.991961 19.999961s8.963982 19.999961 20.007961 19.999961c11.043978 0 19.999961-8.953983 19.999961-19.999961s-8.955983-19.999961-19.999961-19.999961zM230.009551 132.001742c11.043978 0 19.999961-8.953983 19.999961-19.999961s-8.955983-19.999961-19.999961-19.999961h-0.014c-11.043978 0-19.991961 8.953983-19.991961 19.999961s8.959983 19.999961 20.005961 19.999961z" p-id="11505"></path></svg>