<?xml version="1.0" standalone="no"?><!DOCTYPE svg PUBLIC "-//W3C//DTD SVG 1.1//EN" "http://www.w3.org/Graphics/SVG/1.1/DTD/svg11.dtd"><svg t="1634986950193" class="icon" viewBox="0 0 1024 1024" version="1.1" xmlns="http://www.w3.org/2000/svg" p-id="19109" xmlns:xlink="http://www.w3.org/1999/xlink" width="20" height="20"><defs><style type="text/css"></style></defs><path d="M848 925.8H178.8c-44.1 0-80-35.9-80-80V176.7c0-44.1 35.9-80 80-80h334.6c14.9 0 27 12.1 27 27s-12.1 27-27 27H178.8c-14.3 0-25.9 11.6-25.9 25.9v669.2c0 14.3 11.6 25.9 25.9 25.9H848c14.3 0 25.9-11.6 25.9-25.9V511.3c0-14.9 12.1-27 27-27s27 12.1 27 27v334.6c0.1 44-35.8 79.9-79.9 79.9z" fill="#FC592D" p-id="19110"></path><path d="M890.4 96.7h-224c-14.9 0-27 12.1-27 27s12.1 27 27 27h170.4L499.1 488.5c-10.6 10.6-10.6 27.7 0 38.2 5.3 5.3 12.2 7.9 19.1 7.9 6.9 0 13.8-2.6 19.1-7.9l336.6-336.6v168.2c0 14.9 12.1 27 27 27s27-12.1 27-27v-224c0.1-20.7-16.8-37.6-37.5-37.6z" fill="#FFCE00" p-id="19111"></path></svg>