<?xml version="1.0" standalone="no"?><!DOCTYPE svg PUBLIC "-//W3C//DTD SVG 1.1//EN" "http://www.w3.org/Graphics/SVG/1.1/DTD/svg11.dtd"><svg t="1634624078776" class="icon" viewBox="0 0 1024 1024" version="1.1" xmlns="http://www.w3.org/2000/svg" p-id="23633" xmlns:xlink="http://www.w3.org/1999/xlink" width="32" height="32"><defs><style type="text/css"></style></defs><path d="M512 63.488q93.184 0 174.592 35.328t142.336 95.744 96.256 142.336 35.328 174.08q0 93.184-35.328 174.592t-96.256 142.336-142.336 96.256-174.592 35.328q-92.16 0-174.08-35.328t-142.336-96.256-95.744-142.336-35.328-174.592q0-92.16 35.328-174.08t95.744-142.336 142.336-95.744 174.08-35.328zM339.968 450.56q17.408 9.216 36.864 1.536t35.84-20.992q18.432-15.36 37.888-38.912l-202.752-117.76q13.312 43.008 28.672 78.848 13.312 30.72 29.696 59.904t33.792 37.376zM509.952 840.704q27.648 0 51.712-10.752t42.496-28.672 28.672-42.496 10.24-52.224-10.24-51.712-28.672-41.984-42.496-28.672-51.712-10.752-51.712 10.752-41.984 28.672-28.672 41.984-10.752 51.712 10.752 52.224 28.672 42.496 41.984 28.672 51.712 10.752zM680.96 450.56q17.408-8.192 33.792-37.376t29.696-59.904q15.36-35.84 28.672-78.848l-202.752 117.76q19.456 23.552 37.888 38.912 16.384 13.312 35.84 20.992t36.864-1.536z" p-id="23634" fill="#2c2c2c"></path></svg>