<?xml version="1.0" standalone="no"?><!DOCTYPE svg PUBLIC "-//W3C//DTD SVG 1.1//EN" "http://www.w3.org/Graphics/SVG/1.1/DTD/svg11.dtd"><svg t="1634624777830" class="icon" viewBox="0 0 1024 1024" version="1.1" xmlns="http://www.w3.org/2000/svg" p-id="50285" xmlns:xlink="http://www.w3.org/1999/xlink" width="32" height="32"><defs><style type="text/css"></style></defs><path d="M511.970229 225.780114a101.704774 101.704774 0 1 1 101.704774-101.648708 101.816908 101.816908 0 0 1-101.704774 101.648708z" fill="#E9EAEA" p-id="50286"></path><path d="M511.970229 44.853263A79.278143 79.278143 0 1 1 432.860286 124.131406 79.334209 79.334209 0 0 1 511.970229 44.853263m0-44.853263a124.131406 124.131406 0 1 0 124.131406 124.131406A124.131406 124.131406 0 0 0 511.970229 0zM634.69997 1001.573368a33.023215 33.023215 0 0 1-14.91371-3.532194 22.426632 22.426632 0 0 0-10.035917-2.354796 13.343846 13.343846 0 0 1-14.072712-21.585633l59.935173-135.737188a49.058257 49.058257 0 0 0-8.69032-53.43145l-77.708278-84.099869a77.876478 77.876478 0 0 0-114.487955 0l-77.652212 84.099869a49.058257 49.058257 0 0 0-8.858519 53.09505l59.935173 135.793255a18.333771 18.333771 0 0 1 1.233465 16.203241 18.333771 18.333771 0 0 1-15.306176 5.606658 22.426632 22.426632 0 0 0-10.035918 2.354796 33.303548 33.303548 0 0 1-44.853263-15.250109l-80.791941-165.620675a23.996496 23.996496 0 0 1 3.644328-26.575558l0.840999-0.953132 91.052124-115.38502a123.346474 123.346474 0 0 0 26.351292-75.970214V421.508541a22.426632 22.426632 0 0 0-34.144546-19.118703L249.186173 473.930793a21.922032 21.922032 0 0 0-2.410863 1.681997A29.771353 29.771353 0 0 1 227.880873 482.17258 30.332019 30.332019 0 0 1 208.593969 428.685064l207.446343-138.596584h188.495839l211.034603 138.65265a30.332019 30.332019 0 0 1-19.455103 53.43145 29.771353 29.771353 0 0 1-18.894437-6.840123 21.922032 21.922032 0 0 0-2.410863-1.681997L657.855467 402.333771A22.426632 22.426632 0 0 0 623.486654 421.508541v176.777924a123.346474 123.346474 0 0 0 26.351293 75.970215l91.388523 115.38502 0.840999 0.953131a23.996496 23.996496 0 0 1 3.644328 26.519492l-80.791941 165.676741a33.191415 33.191415 0 0 1-30.219886 18.782304z" fill="#E9EAEA" p-id="50287"></path><path d="M597.864228 312.459045l204.082348 134.111257a7.849321 7.849321 0 0 1 2.074463 7.064389 8.073587 8.073587 0 0 1-7.905388 6.111257 7.288655 7.288655 0 0 1-4.765659-1.79413 44.853263 44.853263 0 0 0-4.821726-3.420062L669.573382 383.215068A44.853263 44.853263 0 0 0 601.060023 421.508541v176.777924a145.773106 145.773106 0 0 0 31.173018 89.706527l91.052124 115.385019 1.625931 1.962331a1.681997 1.681997 0 0 1 0 1.850197L644.791954 972.979413a11.213316 11.213316 0 0 1-9.867717 6.167324 10.764783 10.764783 0 0 1-4.877793-1.177398 44.853263 44.853263 0 0 0-9.811651-3.588261l56.066579-127.046869a71.484888 71.484888 0 0 0-12.839247-77.371879l-77.652212-84.099868a100.30311 100.30311 0 0 0-147.455103 0l-77.652212 84.099868a71.484888 71.484888 0 0 0-12.895313 77.371879l56.066579 127.046869a44.853263 44.853263 0 0 0-9.811651 3.588261 10.764783 10.764783 0 0 1-4.877793 1.177398 11.213316 11.213316 0 0 1-9.867717-6.167324L298.580829 807.358739a1.681997 1.681997 0 0 1 0-1.850198l1.625931-1.96233 91.052124-115.38502a145.773106 145.773106 0 0 0 31.173018-89.706526V421.508541A44.853263 44.853263 0 0 0 354.367075 383.215068L237.524324 454.812089a44.853263 44.853263 0 0 0-4.821726 3.420062 7.288655 7.288655 0 0 1-4.765659 1.79413A8.073587 8.073587 0 0 1 219.807285 453.634691a7.849321 7.849321 0 0 1 2.186597-7.120455l200.325887-133.999124h175.544459m13.399912-44.853264h-202.40035L195.194057 410.575558A52.758651 52.758651 0 0 0 227.880873 504.599212a52.085852 52.085852 0 0 0 33.023215-11.830049l116.898817-71.260622v176.777924a100.247043 100.247043 0 0 1-21.529566 62.065703l-90.996058 115.38502a46.535261 46.535261 0 0 0-7.008323 51.188787L338.892699 992.378449a55.73018 55.73018 0 0 0 75.185283 25.454227c31.901883 0 47.488392-23.884363 34.593079-53.038983L388.735888 829.224704a26.631625 26.631625 0 0 1 4.821726-28.818221l77.652212-84.099869a55.449847 55.449847 0 0 1 81.520806 0l77.652212 84.099869a26.631625 26.631625 0 0 1 4.821725 28.818221l-59.879106 135.793255c-12.895313 29.210688 2.691196 53.038984 34.593079 53.038984A55.786246 55.786246 0 0 0 685.159891 992.378449l80.623741-165.620674a46.535261 46.535261 0 0 0-7.008322-51.188787l-91.052125-115.21682A100.247043 100.247043 0 0 1 645.913286 598.286465V421.508541l117.17915 71.540955a52.085852 52.085852 0 0 0 33.023215 11.549716 52.758651 52.758651 0 0 0 32.686816-94.303986l-217.538327-142.689444z" fill="#E9EAEA" p-id="50288"></path></svg>