<?xml version="1.0" standalone="no"?><!DOCTYPE svg PUBLIC "-//W3C//DTD SVG 1.1//EN" "http://www.w3.org/Graphics/SVG/1.1/DTD/svg11.dtd"><svg t="1634625016737" class="icon" viewBox="0 0 1024 1024" version="1.1" xmlns="http://www.w3.org/2000/svg" p-id="51250" xmlns:xlink="http://www.w3.org/1999/xlink" width="32" height="32"><defs><style type="text/css"></style></defs><path d="M725.4 308h-440c-11 0-20-9-20-20v-11.6c0-44.8 36.6-81.4 81.4-81.4h69.6V142.4c0-49.2 40-89 89-89 49.2 0 89 40 89 89v52.8H664c44.8 0 81.4 36.6 81.4 81.4v11.6c0 10.8-8.8 19.8-20 19.8z m-419-40h398.2c-4-18.8-20.6-33-40.4-33h-89.6c-11 0-20-9-20-20V142.4c0-27-22-49-49-49s-49 22-49 49v72.8c0 11-9 20-20 20h-89.6c-20-0.2-36.6 14-40.6 32.8z" fill="#2c2c2c" p-id="51251"></path><path d="M762.8 948.6H248.2c-61 0-110.8-49.6-110.8-110.8V241.2c0-61 49.6-110.8 110.8-110.8h105.2c11 0 20 9 20 20s-9 20-20 20h-105.2c-39 0-70.8 31.8-70.8 70.8V838c0 39 31.8 70.8 70.8 70.8h514.6c39 0 70.8-31.8 70.8-70.8V241.2c0-39-31.8-70.8-70.8-70.8h-105.2c-11 0-20-9-20-20s9-20 20-20h105.2c61 0 110.8 49.6 110.8 110.8V838c0 61-49.8 110.6-110.8 110.6z" fill="#2c2c2c" p-id="51252"></path><path d="M505.6 160.2m-24 0a24 24 0 1 0 48 0 24 24 0 1 0-48 0Z" fill="#2c2c2c" p-id="51253"></path><path d="M719.4 458.4H285.6c-11 0-20-9-20-20s9-20 20-20h433.8c11 0 20 9 20 20s-9 20-20 20zM719.4 627.6H285.6c-11 0-20-9-20-20s9-20 20-20h433.8c11 0 20 9 20 20s-9 20-20 20zM719.4 796.8H285.6c-11 0-20-9-20-20s9-20 20-20h433.8c11 0 20 9 20 20s-9 20-20 20z" fill="#2c2c2c" p-id="51254"></path></svg>