<?xml version="1.0" standalone="no"?><!DOCTYPE svg PUBLIC "-//W3C//DTD SVG 1.1//EN" "http://www.w3.org/Graphics/SVG/1.1/DTD/svg11.dtd"><svg t="1634624317542" class="icon" viewBox="0 0 1024 1024" version="1.1" xmlns="http://www.w3.org/2000/svg" p-id="33302" xmlns:xlink="http://www.w3.org/1999/xlink" width="32" height="32"><defs><style type="text/css"></style></defs><path d="M304.38636406 528.02272719L505.86363594 180.63636406a34.09090875 34.09090875 0 0 0-58.97727188-34.09090969l-201.13636406 347.38636407a34.09090875 34.09090875 0 0 0 58.63636406 34.09090875z" p-id="33303"></path><path d="M397.45454562 335.75h402.61363594a34.09090875 34.09090875 0 0 0 0-68.18181844H397.45454562a34.09090875 34.09090875 0 0 0 0 68.18181844z" p-id="33304"></path><path d="M609.84090875 319.04545437l201.13636406 348.40909126a34.09090875 34.09090875 0 0 0 58.97727281-34.09090969l-201.13636406-348.75a34.09090875 34.09090875 0 0 0-58.97727281 34.09090969z" p-id="33305"></path><path d="M731.20454563 493.93181844L529.72727281 843.36363594a34.09090875 34.09090875 0 0 0 58.97727281 34.09090969l201.13636313-349.43181844a34.09090875 34.09090875 0 0 0-58.63636313-34.09090875z" p-id="33306"></path><path d="M638.47727281 687.90909125H235.86363594a34.09090875 34.09090875 0 0 0 0 68.1818175h402.61363687a34.09090875 34.09090875 0 0 0 0-68.1818175z" p-id="33307"></path><path d="M427.11363594 704.95454563L225.63636406 357.56818156a34.09090875 34.09090875 0 0 0-58.63636406 34.09090969l201.13636406 348.40909031a34.09090875 34.09090875 0 0 0 58.97727188-34.09090875z" p-id="33308"></path><path d="M512 992a480 480 0 1 1 480.34090875-480 480.68181844 480.68181844 0 0 1-480.34090875 480z m0-891.81818156a411.81818156 411.81818156 0 1 0 412.15909125 411.81818156A412.15909125 412.15909125 0 0 0 512 100.18181844z" p-id="33309"></path></svg>