<?xml version="1.0" standalone="no"?><!DOCTYPE svg PUBLIC "-//W3C//DTD SVG 1.1//EN" "http://www.w3.org/Graphics/SVG/1.1/DTD/svg11.dtd"><svg t="1634624195353" class="icon" viewBox="0 0 1024 1024" version="1.1" xmlns="http://www.w3.org/2000/svg" p-id="26317" xmlns:xlink="http://www.w3.org/1999/xlink" width="32" height="32"><defs><style type="text/css"></style></defs><path d="M912.63437 244.923H111.29737A111.297 111.297 0 0 0 0.00037 356.22v511.965a22.26 22.26 0 0 0 38.064 15.804L270.45037 648.262a155.815 155.815 0 0 1 218.365 0l150.695 149.36a89.037 89.037 0 0 0 125.988 0l40.067-38.286a154.035 154.035 0 0 1 173.846-32.498v185.865a66.778 66.778 0 0 1-66.778 66.778H89.03837a22.26 22.26 0 0 0 0 44.519h823.596a111.297 111.297 0 0 0 111.296-111.297V356.22a111.297 111.297 0 0 0-111.296-111.297zM776.85237 726.838l-40.067 38.286a44.519 44.519 0 0 1-62.994 0l-150.696-149.36a200.334 200.334 0 0 0-281.358 0L44.51937 813.872V356.22a66.778 66.778 0 0 1 66.778-66.778h801.337a66.778 66.778 0 0 1 66.778 66.778v322.983a198.553 198.553 0 0 0-202.56 47.635z m-501.058-531.33L480.35737 57.721a44.519 44.519 0 0 1 62.994 0l204.563 137.785a22.26 22.26 0 0 0 31.164-31.608L574.95937 26.114a89.037 89.037 0 0 0-125.988 0L244.85337 163.899a22.26 22.26 0 0 0 30.94 31.608z" p-id="26318" fill="#2c2c2c"></path><path d="M704.95437 445.257a89.037 89.037 0 1 0 89.037 89.037 89.037 89.037 0 0 0-89.037-89.037z m0 133.556a44.519 44.519 0 1 1 44.519-44.519 44.519 44.519 0 0 1-44.52 44.52z" p-id="26319" fill="#2c2c2c"></path></svg>