<?xml version="1.0" standalone="no"?><!DOCTYPE svg PUBLIC "-//W3C//DTD SVG 1.1//EN" "http://www.w3.org/Graphics/SVG/1.1/DTD/svg11.dtd"><svg t="1634739879454" class="icon" viewBox="0 0 1024 1024" version="1.1" xmlns="http://www.w3.org/2000/svg" p-id="26318" xmlns:xlink="http://www.w3.org/1999/xlink" width="32" height="32"><defs><style type="text/css"></style></defs><path d="M325.6 614V109.5c0-55.6 48.3-90.6 98.6-72.9 29.8 10.4 47.9 37.5 48.3 75.3 0.6 50.4 0 100.9 0 151v27.9c23.1-32.3 53.7-52.9 93.2-41.4 44.9 13.1 54.6 51.9 53.3 97.3 6.3-9.8 13.6-18.9 21.7-27.3 19.1-20.7 49.1-27.6 75.4-17.3 27.3 8.1 46.5 32.2 47.9 60.3 1.6 19.9 0 46.2 0 66.4 9.6-10.2 13.7-14.7 17.9-19.6 18.7-23.1 50-32.4 78.6-23.4 27.7 7.9 51.2 34.4 51.4 63.1 0.7 90 5.9 180.4-1.9 269.8-10.9 125.7-82 213.8-203 255.1-118 40.3-225.4 13.7-314.7-72.1-84.9-82-167.3-166.4-250.7-249.3-22.9-22.7-37.9-47.7-29.5-81.1 6.3-25.9 26.1-46.4 51.9-53.9 25.8-7.5 53.8-0.8 73.2 17.6 28.4 26.4 54.5 55.2 81.6 82.9 2.5 2.6 6.8 1.1 6.8-3.9z m0 0" fill="#F3D047" p-id="26319"></path></svg>