<?xml version="1.0" standalone="no"?><!DOCTYPE svg PUBLIC "-//W3C//DTD SVG 1.1//EN" "http://www.w3.org/Graphics/SVG/1.1/DTD/svg11.dtd"><svg t="1634623252487" class="icon" viewBox="0 0 1024 1024" version="1.1" xmlns="http://www.w3.org/2000/svg" p-id="10280" xmlns:xlink="http://www.w3.org/1999/xlink" width="32" height="32"><defs><style type="text/css"></style></defs><path d="M277.333533 256c-58.813333 0-106.666667 47.853333-106.666666 106.666667s47.853333 106.666667 106.666666 106.666666 106.666667-47.853333 106.666667-106.666666-47.853333-106.666667-106.666667-106.666667z m0 170.666667a64 64 0 1 1 64-64 64.073333 64.073333 0 0 1-64 64z m717.793334 90.286666l-416-416A52.986667 52.986667 0 0 0 541.413533 85.333333H53.333533a53.393333 53.393333 0 0 0-53.333333 53.333334v360.08a52.986667 52.986667 0 0 0 15.62 37.713333l416 416a53.333333 53.333333 0 0 0 75.426667 0l26.286666-26.293333 26.286667 26.293333a53.333333 53.333333 0 0 0 75.426667 0l360.08-360.08a53.4 53.4 0 0 0 0-75.426667z m-518.253334 405.333334a10.666667 10.666667 0 0 1-15.08 0l-416-416A10.573333 10.573333 0 0 1 42.666867 498.746667V138.666667a10.666667 10.666667 0 0 1 10.666666-10.666667h360.08a10.573333 10.573333 0 0 1 7.54 3.126667l416 416a10.666667 10.666667 0 0 1 0 15.08z m488.08-360.08l-360.08 360.08a10.666667 10.666667 0 0 1-15.08 0L563.5002 896l303.626667-303.62a53.4 53.4 0 0 0 0-75.426667L478.166867 128h63.246666a10.573333 10.573333 0 0 1 7.54 3.126667l416 416a10.666667 10.666667 0 0 1 0 15.08z" fill="#2c2c2c" p-id="10281"></path></svg>