<?xml version="1.0" standalone="no"?><!DOCTYPE svg PUBLIC "-//W3C//DTD SVG 1.1//EN" "http://www.w3.org/Graphics/SVG/1.1/DTD/svg11.dtd"><svg t="1634624470921" class="icon" viewBox="0 0 1024 1024" version="1.1" xmlns="http://www.w3.org/2000/svg" p-id="37564" xmlns:xlink="http://www.w3.org/1999/xlink" width="32" height="32"><defs><style type="text/css"></style></defs><path d="M952.7 702L479 920.1c-3.7 1.8-7.7 2.8-11.7 2.9-5.6-0.2-10.8-2.9-14.3-7.2-3.5-4.3-5-10-4-15.5V521.6c-20.2-122.8-108.6-223.4-227.8-259.1L707.5 89.9c18.5-4.8 37.6-7.2 56.8-7.1 62 0 155.7 25.1 181.5 170.1L972 669.8c0.1 13.6-7.3 26-19.3 32.2z m-54.3-443.3c-16.1-86.4-60-128.5-134.1-128.5-14.3 0-28.6 1.6-42.5 4.9L343 269.6c82.5 58.1 137.8 147.2 153.3 247l0.3 2.5v340.8l427.2-196.6-25.4-404.6z m-273.1 57.8c18.1-10.9 37.6-19.2 57.9-24.8 30.2-3.6 60.7 2.5 87.3 17.3 20 13.7 35.4 32.9 44.5 55.3 14.7 29.7 0.4 58.4-8.8 92.8-8.1 30.2-78 79.2-114.4 86.8l-35.1 6.6 13.5 86.7c1.6 12.4-6 24.1-17.9 27.7l-8.3 2.3c-6 1.9-12.5 1-17.7-2.5-5.2-3.4-8.7-9-9.4-15.2L575.4 361c14.5-16.9 31.3-32 49.9-44.5z m23.4 162.1c0.8 5.8 3.8 11 8.5 14.6 4.7 3.5 10.5 5 16.3 4.2l15-2.1c26.8-9 50.5-25.4 68.3-47.4 8.9-17.9 12.5-38 10.5-57.8-2.1-32.4-25.4-50.3-72.7-47.7-9.2 1.4-18.4 3.3-27.4 5.7-13 5.1-24.4 13.6-33.2 24.5l14.7 106z m-247.3 58.8v378.7c0 6.8-2.7 13.2-7.5 18-4.8 4.7-11.4 7.3-18.1 7.1-3.7 0-7.3-0.7-10.7-2.1L74.5 823.9c-12.8-6.7-21.2-19.6-22.2-34.1V490C51 425.4 56.1 305.7 168 305.7c18.4 0.3 36.6 2.9 54.3 7.7 64.4 20.1 160.9 115.8 179.1 224zM168 353.1c-15.2-1.5-30.4 3.8-41.5 14.3-28.4 28.8-27.1 98.8-26.7 121.8v293.9l253.9 100.6V541.5c-16.6-87.4-96.9-166.9-144.7-182.6-13.3-3.6-27.1-5.6-41-5.8z m131.9 245.6c-4.6 12.3-18.3 18.6-30.7 14L150 568.4c-12.3-4.6-18.6-18.3-14-30.7 4.6-12.3 18.3-18.6 30.7-14L285.9 568c12.2 4.6 18.5 18.3 14 30.7z m-133.2 36.2l119.2 44.3c8.2 2.8 14.1 9.9 15.6 18.4 1.5 8.5-1.7 17.2-8.4 22.6-6.7 5.5-15.8 6.9-23.8 3.7l-119.2-44.3c-12.4-4.6-18.7-18.3-14.1-30.7s18.3-18.6 30.7-14z m0 0" fill="#2c2c2c" p-id="37565"></path></svg>