<?xml version="1.0" standalone="no"?><!DOCTYPE svg PUBLIC "-//W3C//DTD SVG 1.1//EN" "http://www.w3.org/Graphics/SVG/1.1/DTD/svg11.dtd"><svg t="1634625352135" class="icon" viewBox="0 0 1024 1024" version="1.1" xmlns="http://www.w3.org/2000/svg" p-id="51842" xmlns:xlink="http://www.w3.org/1999/xlink" width="32" height="32"><defs><style type="text/css"></style></defs><path d="M90.738607 403.358651c-18.479887-14.542204-21.439288 3.849678-21.439288 26.76048l0 253.833149c0 8.118911 3.794419 15.808034 10.342556 20.960381l353.819374 246.206448c18.479887 14.542204 46.293349 1.949398 46.293349-20.960381l0-272.854365c0-8.114818-3.794419-15.803941-10.342556-20.960381L90.738607 403.358651z" p-id="51843" fill="#2c2c2c"></path><path d="M931.324274 407.928736 559.013757 639.010719c-6.548136 5.148253-10.342556 12.841469-10.342556 20.956288l0 270.199908c0 22.909779 27.813462 35.502585 46.293349 20.960381l353.830631-246.214634c6.548136-5.152347 10.342556-12.841469 10.342556-20.960381L959.137737 420.521542C959.137737 397.61074 949.804161 393.386532 931.324274 407.928736z" p-id="51844" fill="#2c2c2c"></path><path d="M919.243121 308.463374 550.119179 75.343989c-21.281699-15.223726-50.653657-15.223726-71.936379 0L111.597681 306.644959c-14.930037 10.680247-14.930037 31.911804 0 42.592051l386.552893 245.577115c10.962679 7.841595 26.092261 7.842619 37.055964 0.001023l384.03556-243.7587C934.173159 340.376201 934.174182 319.143621 919.243121 308.463374zM624.232131 350.823134c-4.731768 0.51063 3.381004-5.975085 5.66093-9.216919 7.544837-10.781554 15.160281-27.143197 8.05342-39.84959-11.489682-20.449751-41.677215-35.886325-70.105684-47.326888l0 122.261555c0 30.523177 7.538697 42.937928-12.977569 57.180304-46.243207 32.105209-123.532501 46.01501-169.669284 16.158005-8.193613-5.325285-12.936637-16.340153-12.747325-27.691689 0.762363-45.782719 97.944729-68.797899 159.461805-38.629809L531.908422 183.91473c0 0 159.656233-5.857405 166.357865 109.213377C698.66333 299.951513 679.208233 344.911494 624.232131 350.823134z" p-id="51845" fill="#2c2c2c"></path></svg>