<?xml version="1.0" standalone="no"?><!DOCTYPE svg PUBLIC "-//W3C//DTD SVG 1.1//EN" "http://www.w3.org/Graphics/SVG/1.1/DTD/svg11.dtd"><svg t="1634739511751" class="icon" viewBox="0 0 1024 1024" version="1.1" xmlns="http://www.w3.org/2000/svg" p-id="3543" xmlns:xlink="http://www.w3.org/1999/xlink" width="32" height="32"><defs><style type="text/css"></style></defs><path d="M519.554 508.387c-93.927-65.683-184.57-98.524-202.961-72.908l-126.769 543.2 467.007-303.456c17.735-26.274-43.35-100.496-137.277-166.836z" fill="#F7F2B2" p-id="3544"></path><path d="M453.964 601.514a195.736 54.517 35.119 1 0 62.725-89.186 195.736 54.517 35.119 1 0-62.725 89.186z" fill="#DBAD5B" p-id="3545"></path><path d="M215.44 867.674L189.825 978.68l89.33-58.458c-4.599-15.107-14.451-28.9-28.244-38.753-11.167-7.882-22.99-12.48-35.47-13.794z m111.662-95.24c21.675-30.871 13.137-74.88-19.705-97.868-13.137-9.196-28.244-13.794-43.35-13.794l-30.215 129.396c31.528 19.048 72.251 11.823 93.27-17.734z" fill="#E084B3" p-id="3546"></path><path d="M379.142 781.222a72.251 68.31 35.119 1 0 78.595-111.75 72.251 68.31 35.119 1 0-78.595 111.75z" fill="#E084B3" p-id="3547"></path><path d="M326.445 856.508c-8.539 12.48-12.48 26.93-11.823 40.724l96.554-63.056c-30.214-13.137-65.683-4.598-84.73 22.332z m43.351-277.183c7.882-11.166 11.823-23.646 11.823-36.782-28.244-26.93-48.606-52.547-56.488-72.252-5.254-1.313-11.166-1.97-16.42-2.627l-30.215 130.052c31.528 18.392 70.938 10.51 91.3-18.39z m275.87 90.643c-12.48 17.734-59.772 7.225-118.23-22.99-15.764 30.215-5.912 68.968 24.302 90.644 1.314 1.313 3.284 1.97 4.598 3.284l100.495-65.027c1.97-2.627 2.628-5.254 3.284-8.538-3.284-12.48-9.852-24.303-19.704-34.156 8.538 15.107 10.509 28.244 5.254 36.783zM191.794 45.978v9.196c0 5.911 1.313 14.45 4.598 23.646 3.284 9.852 9.852 20.362 21.018 28.9 5.912 3.941 11.823 7.882 19.705 11.166 7.225 3.285 15.764 5.255 24.303 7.226 17.734 3.94 36.782 5.254 57.801 5.911 21.019 0 43.35-0.657 66.34-5.255 11.166-1.97 22.99-5.254 33.498-9.852 11.167-4.598 21.676-10.51 30.215-18.391 3.94-3.941 7.225-9.196 6.568-13.794 0-4.598-3.284-8.539-7.225-11.823-8.539-6.568-19.705-6.568-30.871-3.284-21.676 7.225-40.724 22.99-56.488 40.067-15.764 17.734-27.587 37.44-36.782 58.458-4.598 10.51-7.882 21.018-10.51 30.87-2.627 10.51-4.597 21.02-5.254 30.872-1.97 20.362 0 40.067 3.94 57.144 3.942 17.735 9.853 33.499 16.421 46.635s13.137 24.303 19.049 33.499c5.911 9.195 11.166 15.764 14.45 20.361 3.284 4.598 5.255 7.226 5.255 7.226l-1.314 1.313s-2.627-1.97-6.568-5.911c-4.598-3.941-10.51-10.51-17.735-18.391-7.225-8.54-15.764-19.049-23.646-32.185-7.882-13.137-15.764-29.558-21.018-47.949-5.255-18.391-8.54-40.067-7.226-62.399 1.314-22.332 6.569-45.978 16.421-68.31 9.853-22.333 24.303-44.008 42.037-62.4 9.196-9.195 18.392-17.734 29.558-24.959 11.166-7.225 22.989-13.137 36.126-16.42 6.568-1.314 13.793-1.971 21.018-0.658 3.284 0.657 7.225 1.314 10.51 3.285 3.284 1.313 7.225 3.94 9.195 5.911 3.284 2.627 5.255 5.255 7.225 8.539 1.97 3.284 2.628 7.225 2.628 11.166-0.657 7.882-5.912 13.794-10.51 18.391-9.852 8.54-21.018 13.794-32.184 19.048-11.167 4.598-22.99 8.54-34.156 11.823-22.989 6.569-45.321 11.823-67.653 13.137-21.676 1.314-43.351 0-62.4-5.255-19.047-4.597-36.125-13.136-48.605-24.302-12.48-11.823-19.048-26.274-21.018-37.44-1.97-11.166-1.314-20.362-0.657-26.273 1.313-5.911 1.97-9.196 1.97-9.196l1.97 0.657z" fill="#E084B3" p-id="3548"></path><path d="M837.46 632.529s-1.314 0.656-3.941 2.627c-1.314 0.657-2.627 1.97-4.598 3.284-1.97 1.314-3.94 2.627-7.225 3.284-5.255 1.97-12.48 3.284-21.019 1.97-7.882-1.313-16.42-6.568-23.646-13.136-7.225-7.225-13.136-15.764-18.39-25.616-4.599-9.853-8.54-21.676-9.853-33.499-0.657-5.911-1.314-12.48-1.314-18.391 0.657-5.912 1.314-13.137 5.912-18.391 1.97-2.628 5.911-3.941 9.195-3.941h3.941l1.314 0.657c1.313 0.656 3.284 1.313 4.598 2.627 5.254 4.598 7.225 11.823 7.225 18.391 0.657 13.137-3.284 26.273-9.196 37.44-5.911 11.822-13.137 21.675-21.675 30.87-8.54 9.196-17.735 16.421-27.587 21.676-9.853 5.911-19.705 9.196-29.558 11.823-9.852 1.97-18.39 3.941-26.273 3.941h-11.166c-3.284 0-6.568-0.657-9.196-0.657-5.911-0.657-9.852-1.314-13.136-1.97-2.628-0.657-4.598-0.657-4.598-0.657v-0.657h4.598c3.284 0 7.225 0.657 13.136 0.657 5.255 0 12.48 0 19.705-0.657 7.882-0.657 15.764-2.627 24.96-5.255s18.391-6.568 27.587-12.48c9.195-5.254 18.391-12.48 26.273-20.361 8.539-7.882 15.764-17.735 21.019-28.9 2.627-5.255 5.254-11.167 7.225-17.078 1.97-5.912 3.284-11.823 3.284-18.392 0-5.911-1.314-12.48-5.255-16.42-4.598-3.941-11.823-4.598-15.764 0-3.94 4.597-4.597 11.166-4.597 17.077 0 5.912 0.656 11.823 1.97 17.735 2.627 11.823 7.225 22.332 11.823 31.527s10.51 17.735 17.078 24.303 13.793 11.166 21.018 13.137c7.225 1.97 13.794 1.314 19.048 0 2.628-0.657 4.598-1.314 6.569-2.627 1.97-0.657 3.284-1.971 4.597-2.628 3.941-0.657 5.255-1.97 5.912-1.313z" fill="#E084B3" p-id="3549"></path><path d="M504.446 461.752s2.628 1.314 6.569 2.628c4.598 1.97 11.166 3.94 19.705 5.911 8.538 1.97 19.048 2.628 30.87 1.314 11.824-1.314 24.96-4.598 38.754-10.51 13.793-5.91 27.587-14.45 40.723-24.959 13.794-10.51 26.93-22.99 38.097-38.096 5.254-7.882 10.509-16.421 13.136-25.617 2.628-9.195 3.941-19.048 0.657-28.243s-11.166-15.108-20.362-17.735c-4.598-1.314-9.195-1.97-14.45-1.97h-7.225c-2.628 0-4.598 0.656-7.225 0.656-9.196 1.314-17.735 5.912-21.676 13.137-4.598 7.225-5.254 15.764-3.284 24.96 3.284 17.734 14.45 34.155 27.587 46.635 13.137 12.48 28.244 22.332 43.35 28.9 15.765 6.569 31.529 10.51 45.98 11.823 29.556 3.284 55.173 0 72.907-3.284 8.54-1.97 15.764-3.284 20.362-4.598 4.598-1.313 7.225-1.97 7.225-1.97l0.657 1.313-6.568 3.285c-4.598 1.97-11.166 4.597-19.705 7.882s-19.705 5.911-32.185 8.538c-12.48 2.628-27.587 3.941-43.35 2.628-15.765-0.657-33.5-3.941-51.234-10.51s-34.812-17.077-49.262-32.184c-14.45-15.107-26.273-33.499-29.557-56.488-1.314-11.166 0-24.303 7.225-34.155 3.94-5.255 8.539-9.196 14.45-11.166 5.255-2.627 11.166-3.941 17.078-3.941h16.42c5.255 0.657 10.51 1.97 15.764 3.94 5.255 1.971 9.853 4.599 14.45 8.54 3.942 3.94 7.226 8.538 9.196 13.793 3.284 10.51 1.97 21.676-0.656 31.528s-7.226 19.048-11.823 28.244c-9.853 17.077-22.333 32.184-36.126 44.664-13.794 12.48-29.558 21.019-44.008 26.93-15.107 5.912-30.214 8.54-43.35 9.196-13.137 0-24.96-1.97-33.5-5.255a98.208 98.208 0 0 1-19.047-9.852c-3.941-2.627-5.912-4.598-5.912-4.598l-0.657-1.314z m22.99-143.846l-13.794 17.078c-1.314 1.314-1.314 3.284-0.657 4.598l5.912 20.362c1.313 3.94-2.628 7.882-6.569 5.911l-19.705-7.882c-1.313-0.657-3.284-0.657-4.597 0.657l-17.735 11.823c-3.284 2.627-8.539 0-7.882-4.598l1.314-21.675c0-1.97-0.657-3.285-1.97-4.598l-17.078-13.137c-3.284-2.627-1.97-7.882 1.97-9.195l21.019-5.255c1.314-0.657 3.284-1.314 3.284-3.284l7.225-20.362c1.314-3.941 6.569-4.598 9.196-1.314l11.823 17.735c0.657 1.313 2.627 2.627 3.94 2.627l21.676 0.657c2.628 1.97 5.255 6.568 2.628 9.852z m65.026-168.148h-21.676c-1.97 0-3.284 0.656-4.597 1.97l-12.48 17.734c-2.628 3.285-7.882 2.628-9.196-1.313l-6.568-20.362c-0.657-1.314-1.97-2.627-3.284-3.284l-20.362-6.568c-3.941-1.314-5.255-6.569-1.314-9.196l17.735-12.48c1.313-0.657 1.97-2.627 1.97-3.94V90.642c0-3.941 4.598-6.569 8.539-3.941l17.078 13.136c1.313 1.314 3.284 1.314 4.597 0.657l20.362-6.568c3.941-1.314 7.882 2.627 6.569 6.568l-6.569 20.362c-0.657 1.314 0 3.284 0.657 4.598l12.48 17.077c2.627 1.97 0 7.226-3.941 7.226z" fill="#EBC14C" p-id="3550"></path><path d="M668.654 562.904l-3.94-27.586c0-1.971-1.971-3.941-3.285-5.255l-24.96-12.48c-4.597-2.627-4.597-9.196 0-11.823l24.96-11.823c1.97-0.657 3.284-2.627 3.941-5.255l3.941-27.586c0.657-5.255 7.225-7.882 11.166-3.941l19.048 19.705c1.314 1.313 3.941 1.97 5.912 1.97l26.93-4.598c5.255-0.657 9.852 4.598 7.225 9.853l-13.137 24.302c-1.313 1.97-1.313 3.941 0 5.912l12.48 24.303c2.628 4.597-1.313 10.509-7.225 9.852l-26.93-4.598c-1.97-0.657-4.598 0-5.911 1.97l-19.049 19.706c-3.94 4.598-10.509 2.627-11.166-2.628z" fill="#EBC14C" p-id="3551"></path><path d="M560.934 587.207l-11.823-9.852c-0.657-0.657-1.97-1.314-3.284-0.657l-15.107 3.94c-3.284 0.658-5.255-1.97-4.598-5.254l5.911-14.45c0.657-1.314 0.657-2.627 0-3.284l-8.538-13.137c-1.314-2.627 0.656-5.911 3.284-5.911l15.107 1.313c1.313 0 2.627-0.657 3.284-1.313l9.852-11.823c1.97-2.628 5.912-1.314 6.569 1.313l3.284 15.107c0 1.314 1.314 1.971 1.97 2.628l14.45 5.911c2.628 1.314 3.285 5.255 0.658 6.569l-13.137 7.882c-1.314 0.656-1.97 1.97-1.97 2.627v15.764c0 3.284-3.285 4.598-5.912 2.627zM425.627 260.762l-15.764-16.42c-1.314-1.314-3.284-1.971-4.598-1.314l-22.332 3.94c-4.598 0.657-7.882-3.94-5.912-7.881l10.51-19.705c0.656-1.314 0.656-3.285 0-5.255l-10.51-19.705c-1.97-3.94 1.314-8.539 5.912-7.882l22.332 3.941c1.97 0 3.284 0 4.598-1.314l15.764-15.764c3.284-3.284 8.538-1.313 9.195 3.285l3.284 22.332c0 1.97 1.314 3.284 2.628 3.94l20.362 9.853c3.94 1.97 3.94 7.882 0 9.853l-20.362 9.852c-1.314 0.657-2.628 2.628-3.284 3.941l-3.285 22.333c0 3.284-5.911 5.254-8.538 1.97z" fill="#E084B3" p-id="3552"></path><path d="M429.567 556.993a22.99 22.99 0 1 0 45.979 0 22.99 22.99 0 1 0-45.978 0z" fill="#E8BB74" p-id="3553"></path><path d="M426.284 442.704a28.244 28.244 0 1 0 56.487 0 28.244 28.244 0 1 0-56.487 0zM565.532 235.146a38.753 38.753 0 1 0 77.506 0 38.753 38.753 0 1 0-77.506 0z" fill="#E084B3" p-id="3554"></path><path d="M689.673 111.004a42.694 42.694 0 1 0 85.388 0 42.694 42.694 0 1 0-85.388 0z" fill="#E8BB74" p-id="3555"></path></svg>