<?xml version="1.0" standalone="no"?><!DOCTYPE svg PUBLIC "-//W3C//DTD SVG 1.1//EN" "http://www.w3.org/Graphics/SVG/1.1/DTD/svg11.dtd"><svg t="1634624626975" class="icon" viewBox="0 0 1024 1024" version="1.1" xmlns="http://www.w3.org/2000/svg" p-id="43240" xmlns:xlink="http://www.w3.org/1999/xlink" width="32" height="32"><defs><style type="text/css"></style></defs><path d="M201.5 255.392h136.964v-61.256c0-58.636 47.37-106.258 106.005-106.57 56.974-0.305 103.406 45.636 103.71 102.61 0.005 0.935-0.003 1.87-0.023 2.805l-1.365 62.41h132.79c57.162 0 103.5 46.34 103.5 103.5v137.05h63.882C903.316 495.941 949 541.625 949 597.98c0 56.353-45.684 102.037-102.037 102.037H783.08V834.5c0 57.161-46.338 103.5-103.5 103.5H550.474v-64.993c0-61.203-49.615-110.818-110.819-110.818-61.203 0-110.818 49.615-110.818 110.818V938H201.5C144.339 938 98 891.661 98 834.5V703.45h71.98c60.436 0 109.428-48.993 109.428-109.428 0-60.435-48.992-109.428-109.427-109.428H98V358.892c0-57.162 46.339-103.5 103.5-103.5z" fill="#2c2c2c" p-id="43241"></path></svg>