<?xml version="1.0" standalone="no"?><!DOCTYPE svg PUBLIC "-//W3C//DTD SVG 1.1//EN" "http://www.w3.org/Graphics/SVG/1.1/DTD/svg11.dtd"><svg t="1634623589381" class="icon" viewBox="0 0 1024 1024" version="1.1" xmlns="http://www.w3.org/2000/svg" p-id="14614" xmlns:xlink="http://www.w3.org/1999/xlink" width="32" height="32"><defs><style type="text/css"></style></defs><path d="M986.126027 68.734247C945.446575 50.49863 850.060274 14.027397 742.049315 14.027397c-99.594521 0-186.564384 30.860274-231.452055 50.49863C465.709589 44.887671 377.336986 14.027397 279.145205 14.027397 171.134247 14.027397 75.747945 50.49863 35.068493 68.734247 22.443836 74.345205 14.027397 86.969863 14.027397 100.99726v872.50411C14.027397 994.542466 30.860274 1009.972603 50.49863 1009.972603c4.208219 0 8.416438 0 11.221918-1.40274 54.706849-19.638356 147.287671-47.693151 217.424657-47.693151s161.315068 28.054795 217.424658 47.693151c4.208219 1.40274 8.416438 1.40274 11.221918 1.40274h5.610959c4.208219 0 8.416438 0 11.221918-1.40274 54.706849-19.638356 147.287671-47.693151 217.424657-47.693151s161.315068 28.054795 217.424658 47.693151c4.208219 1.40274 8.416438 1.40274 12.624657 1.40274 19.638356 0 35.068493-15.430137 35.068493-36.471233V100.99726c0-14.027397-8.416438-26.652055-21.041096-32.263013z m-49.09589 858.476712c-60.317808-18.235616-133.260274-36.471233-194.980822-36.471233-74.345205 0-165.523288 25.249315-231.452055 47.693151-65.928767-22.443836-157.106849-47.693151-231.452055-47.693151-61.720548 0-133.260274 16.832877-194.980821 36.471233V124.843836C124.843836 108.010959 197.786301 84.164384 279.145205 84.164384c86.969863 0 165.523288 28.054795 204.8 44.887671 8.416438 4.208219 18.235616 5.610959 28.054795 5.610959s18.235616-1.40274 28.054795-5.610959C576.526027 112.219178 655.079452 84.164384 742.049315 84.164384c79.956164 0 152.89863 23.846575 194.980822 40.679452v802.367123z" p-id="14615" fill="#2c2c2c"></path><path d="M440.460274 203.39726c-2.805479-1.40274-84.164384-39.276712-157.106849-39.276712-72.942466 0-154.30137 37.873973-157.10685 39.276712-16.832877 8.416438-25.249315 29.457534-16.832876 46.290411 8.416438 16.832877 29.457534 25.249315 46.290411 16.832877 19.638356-8.416438 79.956164-32.263014 127.649315-32.263014 57.512329 0 126.246575 32.263014 127.649315 32.263014 4.208219 2.805479 9.819178 2.805479 15.430137 2.805479 12.624658 0 25.249315-7.013699 32.263013-19.638356 7.013699-16.832877-1.40274-37.873973-18.235616-46.290411zM440.460274 478.334247c-2.805479-1.40274-84.164384-39.276712-157.106849-39.276713-72.942466 0-154.30137 37.873973-157.10685 39.276713-16.832877 8.416438-25.249315 29.457534-16.832876 46.290411 8.416438 16.832877 29.457534 25.249315 46.290411 16.832876 19.638356-8.416438 79.956164-32.263014 127.649315-32.263013 57.512329 0 126.246575 32.263014 127.649315 32.263013 4.208219 2.805479 9.819178 2.805479 15.430137 2.80548 12.624658 0 25.249315-7.013699 32.263013-19.638356 7.013699-16.832877-1.40274-37.873973-18.235616-46.290411zM440.460274 753.271233c-2.805479-1.40274-84.164384-39.276712-157.106849-39.276712-72.942466 0-154.30137 37.873973-157.10685 39.276712-16.832877 8.416438-25.249315 29.457534-16.832876 46.290411 8.416438 16.832877 29.457534 25.249315 46.290411 16.832877 19.638356-8.416438 79.956164-32.263014 127.649315-32.263014 57.512329 0 126.246575 32.263014 127.649315 32.263014 4.208219 2.805479 9.819178 2.805479 15.430137 2.805479 12.624658 0 25.249315-7.013699 32.263013-19.638356 7.013699-18.235616-1.40274-37.873973-18.235616-46.290411zM579.331507 203.39726c-16.832877 8.416438-25.249315 29.457534-16.832877 46.290411 8.416438 16.832877 29.457534 25.249315 46.290411 16.832877 0 0 70.136986-32.263014 127.649315-32.263014s126.246575 32.263014 127.649315 32.263014c4.208219 2.805479 9.819178 2.805479 15.430137 2.805479 12.624658 0 25.249315-7.013699 32.263014-19.638356 8.416438-16.832877 1.40274-37.873973-16.832877-46.290411-2.805479-1.40274-84.164384-39.276712-157.106849-39.276712-74.345205 0-155.70411 37.873973-158.509589 39.276712zM893.545205 478.334247c-2.805479-1.40274-84.164384-39.276712-157.106849-39.276713-72.942466 0-154.30137 37.873973-157.106849 39.276713-16.832877 8.416438-25.249315 29.457534-16.832877 46.290411 8.416438 16.832877 29.457534 25.249315 46.290411 16.832876 0 0 70.136986-32.263014 127.649315-32.263013s126.246575 32.263014 127.649315 32.263013c4.208219 2.805479 9.819178 2.805479 15.430137 2.80548 12.624658 0 25.249315-7.013699 32.263014-19.638356 7.013699-16.832877-1.40274-37.873973-18.235617-46.290411zM893.545205 753.271233c-2.805479-1.40274-84.164384-39.276712-157.106849-39.276712-72.942466 0-154.30137 37.873973-157.106849 39.276712-16.832877 8.416438-25.249315 29.457534-16.832877 46.290411s29.457534 25.249315 46.290411 16.832877c0 0 70.136986-32.263014 127.649315-32.263014s126.246575 32.263014 127.649315 32.263014c4.208219 2.805479 9.819178 2.805479 15.430137 2.805479 12.624658 0 25.249315-7.013699 32.263014-19.638356 7.013699-18.235616-1.40274-37.873973-18.235617-46.290411z" p-id="14616" fill="#2c2c2c"></path></svg>