<?xml version="1.0" standalone="no"?><!DOCTYPE svg PUBLIC "-//W3C//DTD SVG 1.1//EN" "http://www.w3.org/Graphics/SVG/1.1/DTD/svg11.dtd"><svg t="1634623514634" class="icon" viewBox="0 0 1024 1024" version="1.1" xmlns="http://www.w3.org/2000/svg" p-id="13583" xmlns:xlink="http://www.w3.org/1999/xlink" width="32" height="32"><defs><style type="text/css"></style></defs><path d="M870.62 240.77H467.21c0-49.51-40.14-89.64-89.64-89.64H153.46c-49.53 0-89.65 40.13-89.65 89.64v627.52c0 49.51 40.12 89.65 89.65 89.65h717.17c49.52 0 89.64-40.13 89.64-89.65V330.42c-0.01-49.51-40.13-89.65-89.65-89.65z m0 582.69c0 24.76-20.08 44.82-44.83 44.82H198.28c-24.75 0-44.82-20.07-44.82-44.82V509.71h717.17v313.75z m-44.83-403.39H153.46v-179.3c0.22 0.23 20.07 0 44.82 0h134.47c24.75 0 44.77 0.06 44.83 0v89.65H825.8c24.75 0 44.83 20.07 44.83 44.82-0.01 24.75-20.09 44.83-44.84 44.83z" p-id="13584" fill="#2c2c2c"></path></svg>