<?xml version="1.0" standalone="no"?><!DOCTYPE svg PUBLIC "-//W3C//DTD SVG 1.1//EN" "http://www.w3.org/Graphics/SVG/1.1/DTD/svg11.dtd"><svg t="1634625402370" class="icon" viewBox="0 0 1027 1024" version="1.1" xmlns="http://www.w3.org/2000/svg" p-id="54451" xmlns:xlink="http://www.w3.org/1999/xlink" width="32.09375" height="32"><defs><style type="text/css"></style></defs><path d="M876.8 150.4H147.2C64 150.4 0 217.6 0 297.6V736c0 80 64 147.2 147.2 147.2h732.8c80 0 147.2-64 147.2-147.2V297.6C1024 217.6 960 150.4 876.8 150.4zM928 761.6c0 12.8-9.6 25.6-25.6 25.6H121.6c-12.8 0-25.6-9.6-25.6-25.6V272c0-12.8 9.6-25.6 25.6-25.6h780.8c12.8 0 25.6 9.6 25.6 25.6v489.6z m-284.8-272l-153.6-108.8c-22.4-16-60.8-25.6-73.6 12.8v252.8c22.4 16 54.4 25.6 73.6 9.6l153.6-108.8c19.2-16 19.2-41.6 0-57.6z" p-id="54452" fill="#2c2c2c"></path></svg>